<?xml version="1.0" encoding="UTF-8"?>
<svg id="Layer_1" xmlns="http://www.w3.org/2000/svg" version="1.1" viewBox="0 0 1024 1024">
  <!-- Generator: Adobe Illustrator 29.5.1, SVG Export Plug-In . SVG Version: 2.1.0 Build 141)  -->
  <defs>
    <style>
      .st0 {
        fill: #e98224;
      }

      .st1 {
        fill: #fff;
      }

      .st2 {
        fill: #5c7333;
      }
    </style>
  </defs>
  <path class="st1" d="M486.9,214.2c124-6.6,201,77.8,199.5,198.9,27.5,14.2,15,50.6-14.4,46.3-8.3-1.2-20.1-2.7-28.2-3h-.8c-1.3,7.1-3.1,18.4-5,25.1,27.8.1,56.3-3.7,84.7-3.2-9.4-6.4-23.1-9.1-21.9-21.4,0-27.3,60.5,19.6,65.9,24.3,1.3,1.2-1.1,36.5-1.3,41.2l-5.5,105.5c-.8,13.8-4.7,133.5-6.5,136.9-2.9,5.3-38,5.4-44,5.7l-380.5,25.6c-12.8.9-25.8,1.6-38.5,3.3-4.6-.5-13.1.3-17.9.7l-26.6,2c-51.5,4-55.1-13.6-87.3-47.6-6.7-7.1-51.9-54.9-52.7-60.8-1.5-11.5-1.9-23.3-2.6-35l-14.9-202.3c-.6-9.1-4.9-26.8,8.6-27.7,13-.9,26.7-.5,39.8-.4-6.6-16-28-48.9-37.7-65.5-6.5-11.2-18.2-24.8-4.1-36,8.2-6.5,49.1-28.9,61.8-27.5,6.5-15.1,39.1-27.1,54.1-33.9,16.6-7.5,28.7,20.7,34.6,31.2l26.8,47.1c9.8-8.1,23.7-23.4,30-1.6-2.6,9.6-10.9,13.6-18.6,20.7,2.2,5,6,11.1,8.9,15.9,7.3-10.7,13.3-9.9,25.2-11.2,10.9-91.8,76.7-148.8,169.1-153.3h0ZM131.4,377.2l64.8,116.3c11.8,21.3,7.3,13.3,8.7,34.6l15.8,211.8c.4,6.7,1.8,13.7-5.2,17.2-19.5,9.8-16.6-32.3-17.4-43.2l-11.9-156.9c-.6-7.8-2.2-24.9-1.8-31.9-22.1-21.1-52.7-36.2-73.3-58.9-2.5,21.9,3.8,66.2,5.5,89.2l5.3,76.5,3,35.7c.4,5.3,1.3,13.7,1.2,18.8,6.9,9.7,23.3,26.3,31.7,35.7l29.7,33.3c31.9,35.5,29.9,25.9,71.3,25,29.3-1.9,77.4-8.4,105.2-7.2,28.2-2.4,56.2-3.9,84.4-5.8l124-8.5c54-3.5,107.6-7.8,161.7-10.6-.6-35.1,1.8-65.4,3.8-100l4.5-90c.8-17.6,3.1-45,2.4-61.4-7,1.2-17.3,1.8-24.7,2.4l-319.2,19c-59,3.9-118.1,8.1-177.2,10.6-3.5,0-11.2-11.3-6-15.7,10.1-8.6,29-4.4,41.7-7.8-7.5-12.7-84-147.8-86.7-149.5-12.3,6.4-29.6,14.9-41.2,21.7v-.4ZM463,374.9c14.8-52,71.5-92,123.2-101.2,3.7,1.9,5.6,3.7,8.4,6.7-5.6,5.1-7.1,5.8-8.4,13.2,5.5,13,15,3.2,21.2-2.9,3.3,4.4,5.7,7.2,8.1,12.2-4.2,3.1-16.4,9.9-16.1,14.4,1.2,17,24.4-1.1,26.7-2.1,3.2,5.6,6.4,10.9,8.5,17.1-7.6,2.6-34.8,13.4-13.9,20.1,8.1-1.7,12.6-5,19.4-6.6,5.1,14.8,10.2,42.1,9.2,57.9,3.7,1.5,12.2,3.1,16.4,3.9,0-40.6-13.1-93-41.7-122.8-59.3-61.6-178-68.5-241.1-9-22.1,20.8-42.4,60.9-43.1,91.7,37.4-.2,86,2.5,123.2,7.4h0ZM374.7,498.9c-7.1-14.5-15.6-22.9-17.3-39.5-6.5-1.5-15.6-6.2-22.6-7.9,5.6,11.8,27.1,38,12.2,46.4-13.6,7.7-33.7-40.6-39.4-50.9l-50.5-88.6c-5.2-9.1-16.2-28.9-22-37-6.6,4.1-34.8,20.9-41.1,19.5-7.9-1.8-9-10.6-6.5-17,5.4-5.4,29.9-16.8,37.9-21-3.1-6-5.9-11.5-10.3-16.7-13.7,7.6-29.5,14.2-42.5,22.3,9.7,21.6,25.4,47.8,37.4,68.4l40.6,70.5c9.4,16,24.6,41.1,31.5,57.6l60.6-4.2c10-.6,22.2-.8,31.9-1.9h.1ZM121.6,358c11.9-6.3,29.1-15.4,41.3-20.7-1.7-3.1-7.7-14-10-15.9-12.5,4.4-30,14-41.8,20.9,1.7,2.8,7.8,14.8,9.8,15.7h.7ZM148.5,449c-9.5.7-15.4.6-24.9,0,4.5,4.3,38.6,32.2,43.1,34.2-5.6-10.8-13.2-23.6-18.2-34.2ZM417.5,495.6c-2.5-2.3-31.9-23.5-34.4-24.9,4,7.1,10.7,19.4,15.2,25.8,8.3.9,10.9.3,19.3-1h0ZM623.2,453.5c-8.8-1.1-19.9-2.2-28.6-2-12.5,8.5-17.4,21.6-22.5,35.2,13-.8,31-2.7,43.5-1.7,1.5-10.9,4.9-20.8,7.6-31.5ZM643,403.7c6.4-14.4-9.3-11.7-16.8-4.8,6.5,1.6,10.5,2.6,16.8,4.8ZM305.7,390.8c6.2,2.1,15.8,3.5,22.4,4.6l40.6,6.4c34.7,5.8,68.3,10.8,103.3,14.8l132,14.1c12.4,1.2,33.6,2.6,45.5,4.7,4.9.3,27.4,3.7,29.9,2.2,1.4-3.9-2.9-6.1-6.1-6.7-110-23.3-220.6-42.3-333.4-41.9-9.6,0-24.9-.1-34.2,1.9h0ZM311.9,413.1c2.8,5.2,5.5,10.5,8.8,15.4,32.2,3.8,64.8,3.6,96.9,9,0-2.1,0-4.3,0-6.4-29.3-8-74-11.8-105.7-18h0Z"/>
  <path class="st0" d="M392.5,602.5c9.5-3.4,25.7,17.2-5.3,20.2-39.3,3.8-79.5,4.8-119,4.2-8.4,0-16.2-.8-24.7,0-20.1-4.5-22.1-22.9,10.3-21.1,47.7,2.7,92.2-3.6,138.7-3.4h0Z"/>
  <path class="st0" d="M707.5,571.2c7.5-1.3,26.9,17.6-8.4,22.4l-29.3,3.8c-32.6,4.4-77.2,11.6-109.9,12.2-9.2.3-13.9-8.6-9.1-16.4,3.8-6.1,38.9-6.5,46.5-7.5l110.2-14.6h0Z"/>
  <path class="st0" d="M246.9,692.3c7.5-1.7,21.1,0,29.3.6,27.2,1.8,53.9,2.4,81.1,0,11.8-1,16,17.9,3.7,20-20.3,3.1-107.3,2.5-116.1-1.9-8.7-4.3-6.7-16.4,2.1-18.9h0Z"/>
  <path class="st0" d="M703,651.2c15.7-2.2,18.5,17.9,6.7,20.6-31.7,7.3-69.9,12.4-102.2,17.3-16.5,2.1-18.5-17.9-5.5-20.1,33.4-5.8,67.6-12.5,100.9-17.8h.1Z"/>
  <path class="st0" d="M586.3,273.6c3.7,1.9,5.6,3.7,8.4,6.7-5.6,5.1-7.1,5.8-8.4,13.2,5.5,13,15,3.2,21.2-2.9,3.3,4.4,5.7,7.2,8.1,12.2-4.2,3.1-16.4,9.9-16.1,14.4,1.2,17,24.4-1.1,26.7-2.1,3.2,5.6,6.4,10.9,8.5,17.1-7.6,2.6-34.8,13.4-13.9,20.1,8.1-1.7,12.6-5,19.4-6.6,5.1,14.8,10.2,42.1,9.2,57.9h-6.5c6.4-14.4-9.3-11.7-16.8-4.8-2.3-.2-5.3-.7-7.5-1.1-46.8-9.2-108.2-20.7-155.7-22.9,14.8-52,71.5-92,123.2-101.2h.2Z"/>
  <path class="st0" d="M320.6,428.5c32.2,3.8,64.8,3.6,96.9,9-1,58.6,84.5,69.6,89.7,4.7,26.3,3.2,63.1,3.6,87.4,9.4-12.5,8.5-17.4,21.6-22.5,35.2-21.8,4.8-69.1,4.8-93.3,6-15.9.8-46.8,5.1-61.2,2.9-2.5-2.3-31.9-23.5-34.4-24.9-5.4-5.7-5.5-39.1-18.7-35.1-14.4,4.3-8.7,14.8-7.1,23.9-6.5-1.5-15.6-6.2-22.6-7.9-1.6-1.8-12.2-19.8-14.1-23v-.2Z"/>
  <path class="st0" d="M438.8,435.4c10.6-1.2,36.9,2.9,48,4.8-1.8,8-2.3,13.2-8,19.3-18.9,15.5-43.2-2-40.1-24.1h0Z"/>
  <path class="st1" d="M844.6,229c11.5-1.1,14.1,15.9,16.8,25.1,16.5,56.4,20.4,104.4,20.8,161.8,11.6,6.1,9.6,13.7,9.5,25.4l-.2,29.4c-.3,21.2-.9,13.1,6.2,31.1,35.8,92.4,31.3,150.5,20.8,246.8-1.8,16.7,4,32.6-9.7,46.4-11.3,11.3-22.8,9.6-37.1,9.5h-25.3c-23.4,0-60.5,6.6-72.8-18.3-6.5-13.1-1.2-27.9-3.5-42.2-13.2-79.7-8.2-158.8,21.3-234.5,7.2-18.5,7.8-19.1,7.7-38.6v-29.6c-.2-10.6-2.2-18.4,8.4-23.8-.9-28.4,12.5-175.2,37.1-188.4h0ZM860.4,496.6c2.8,14.2,7.5,25.5,11.6,39.2,11.7,38.9,20.5,80.2,20,120.9-.4,31-7.5,62.1-8.7,91.9,5.4.2,9,.3,14.5,0,10.3-106.1,16.6-144.2-24.6-252-1.9.1-3.6,0-5.5,0s-4.6.1-7.2,0h-.1ZM871.5,437.5h-51.1v11.5h37.6c.2,3.6-.6,25.6-.3,26.3l.3.2c4.4-.1,9.1-.4,13.5,0-.9-12.4.5-25.5,0-38ZM792.5,769.7c-4.4,2.5,2.6,13.5,9.2,13.7,10.8.3,21.4,0,32.2,0h31.6c6.8,0,22.4.9,27.5-2.6,3.7-4,3.7-5.8,4.7-11.2-33.9.8-72.1-2.3-105.2,0ZM849.2,416c4.6.3,8.2.2,12.8,0,1.9-33.4-3.9-102.2-15.7-135.6-4,14.4-8.1,32.7-10.2,47.3l.5,1.3c18.8,4.9,12.6,15.9,12.6,35.3v51.7h0Z"/>
  <path class="st2" d="M818.1,496.6h31.5c5.8,0,12.3-.3,18,0-2.6,0-4.6.1-7.2,0,2.8,14.2,7.5,25.5,11.6,39.2,11.7,38.9,20.5,80.2,20,120.9-.4,31-7.5,62.1-8.7,91.9h-90.8c-2.5-11.3-3-22.4-4.6-33.5-12.4-82.3,4.5-142.9,30.2-218.4h0Z"/>
  <path class="st2" d="M829.1,416c0-25.1,1.4-64.1,7.1-88.4l.5,1.3c18.8,4.9,12.6,15.9,12.6,35.3v51.7h-20.2Z"/>
  <path class="st0" d="M820.4,449h37.6c.2,3.6-.6,25.6-.3,26.3l.3.2h-37.6v-26.5Z"/>
</svg>