<?xml version="1.0" encoding="UTF-8"?>
<svg id="Layer_1" xmlns="http://www.w3.org/2000/svg" version="1.1" viewBox="0 0 1024 1024">
  <!-- Generator: Adobe Illustrator 29.5.1, SVG Export Plug-In . SVG Version: 2.1.0 Build 141)  -->
  <defs>
    <style>
      .st0 {
        fill: #e98224;
      }

      .st1 {
        fill: #fff;
      }

      .st2 {
        fill: #394d22;
      }

      .st3 {
        fill: #fefefe;
      }
    </style>
  </defs>
  <g id="Layer_11" data-name="Layer_1">
    <path class="st1" d="M-1131.6,298.3c37.9-3.4,51.7,18.3,50,51.7h1.1c18.5.8,48.7-6.3,63.4,2.9,21.1,13.2,35.6,27.9,49,48.7,6.5-1.4,18.8-2.4,26-3.2l115.4-14c11-1.4,26.9-4,37.6-4.7-.8-16.7,6.3-15,20.9-16.8,39.4-4.9,78.8-10.6,118.2-15.1,10.7-1.2,18.4,58.1,20.2,68,2,11.1-16.5,11-23.3,11.8l-117.8,14c-14.7,0-13.1-1.7-14.5-18.1-4.6,0-13.1,1.2-17.8,1.7l-108.9,11.5c-15.3,1.6-30.6,3.6-45.9,5,1.5,15.7,10.4,27.7-10.1,34.1,23-.5,44.8-1.2,68-1.2,41.8,0,59.1-.9,94.6,28.3,8.3,6.8,74.7,63.8,33.9,64.9,12.8,28.9,8.1,61-9.4,86.9-33.4,41.3-57.6,47.8-106.5,49.7l-242.2,9.1c-32.1,1.2-64.3,2.4-96.4,4.1-81.4,4.4-140.6,11.4-210.2-44.2-31.9-25.5-50.7-58.5-28.3-96.1l-5.9.6c-31,3.2-27.5-10.2-9.4-29.2,14.9-15.4,50.1-52.5,66.6-62.7,35.6-21.9,77.9-11.3,117.1-11.5-6.1-28.4-1.9-70.7,14.2-94.9,11.9-17.8,28.9-20,48.1-23.6-.1-17.1-3.9-26.8,8.7-42.4,13.9-17.2,70.1-13.3,93.6-15.4h0ZM-1411.5,662.9c68.4,47.8,132.8,33.6,210.5,30.6l220.2-8.1c31.1-1.1,66.1-3.8,96.8-3.6-26.5-7.3-45.1-21.3-46.1-51.2,5.1-60.5,89.6-64.6,97.6-2.9,1,28-15.2,44.2-39.5,52.8,39-3.3,75.9-28.2,82.9-68.6,4.9-23.6-5.8-47.3-29-55.8-19.2-7-47.7-4.3-68.4-2.4l-465.8,19.7c-14.5.6-29.4,1.9-43.9,1.4-19.2,2-34.8-3.4-48.5,14.1-19.9,25.3,11,62.5,33.3,74h-.1ZM-1106.3,375l1,.2c1,.2,1.2.3,2.2.2l.2.8c4.6,0-2.4.9-3.4,1.6,25.2,1.2,51.2,1.2,76,6.3,2.9.5,10.3,2.6,12.7,2.7-2.5-5.8-9.7-14.9-16.5-15.1-23.7-.4-48.5,3.2-72.2,3.1v.2ZM-753.2,416.7c-14.3-19.1,23.1-31,31.7-37-14.3,2.3-30.6,3.7-45.2,5.5,1,10.4,2.1,22.8,3.7,33.1l9.8-1.5h0ZM-671,406.6c5.5-1.1,10.4-1.3,15.9-1.6l-7-32.3c-7.6.3-14.1,1.1-21.5,2.2,12.7,7.8,29.8,16.5,12.6,31.6h0ZM-1435.8,554.9c22.1-23.9,63-48.2,96-51.2,19.4-.7,43.1,1.6,61.5-.2-12.2-2.4-24.8-3.1-37-4.5-55-6.4-77.5-8.5-119.5,36.3-6.4,6.8-14,13.2-20.4,20.5,6.4-.3,12.9-.7,19.3-.8h0ZM-836,529.4c14.3.4,27.1,5.3,39,12.9-36.3-38.3-45.7-45.4-95.7-45.5l-56,1,.9.2c29.9,6.9,95.6.2,111.8,31.3h0ZM-1273.1,472.3c4.5-.5,7.9.8,12.4,0-6.5-14.2-10.8-27.9-9.8-43.8.2-3.8,2.2-7.9,2.1-11.8-13.1,22.9-4.2,36.4-4.7,55.6h0ZM-855,637.8c-7.8-27.7-22.7-31.8-47.2-23.2-33,36.5,33.5,74.4,47.2,23.2ZM-1206.2,356.1c18.7-17,65.4-26.6,90.1-25.3,12.3.7,4,16.1,1.7,22.2h10.4v-.8c-1.1-10.6,3.1-21.1-6.4-29.1-8.9-7.5-38.4-1.1-50.2-.5-8.7.5-41.8-2.2-46.9,4.1-4.1,5-11.4,32.5,1.3,29.3h0Z"/>
    <path class="st0" d="M-886.5,553.7c20.7-1.9,49.2-4.6,68.4,2.4,23.2,8.5,33.9,32.2,29,55.8-14.1,14.3-23.2,15.4-43.4,15.8-8-61.8-92.4-57.6-97.6,2.9-6.1,1-14-.9-20.7,1.4.3,27.1-21.4,49.4-48.5,49.7s-49.3-21.5-49.6-48.6c-7.4-.3-11.6-.3-19,.4.3,27.1-21.5,49.2-48.6,49.3s-49.1-21.8-49.1-48.8c-4.3.4-15.8-.2-20.7-.4,0,26.7-21.6,48.4-48.3,48.5-26.7,0-48.5-21.4-48.7-48.1-6.8,1-12.1,1.1-18.9,1.1-1.1,23.1-18,42.3-40.7,46.3s-45.2-8.3-54-29.6c-4.8,3.9-9.3,7.8-14.5,11.2-22.4-11.6-53.2-48.7-33.3-74,13.7-17.5,29.4-12.1,48.5-14.1,10.2,3.7,187.4-1.2,205.8-1.8l158.2-4.3c31.4-.6,122-3.1,145.7-14.9v-.2ZM-1339.6,660.3c2.6-3.9,6.2-9.1,7.4-13.6,6-22.9-21.9-40-45.7-24.5-10.5,28.3,9.5,49.5,33.8,39.3.8-.3,3.9-1.3,4.5-1.2ZM-979.1,651.5c8.8-31.5-18.4-47.3-43.8-32.1-20.2,19.4,9,65.5,43.8,32.1ZM-1102.4,656.9c15.7-29.4-8-50-36.7-37.5-22,28.2,11.3,56.8,36.7,37.5ZM-1226.5,660.3c28.5-24.9-6.1-61.4-34.2-38.1-.9,3.4-4.1,8.5-4.1,12.3,0,20,19.4,33.7,38.3,25.8h0Z"/>
    <path class="st1" d="M-1397,651.7c-7.8-18.7-3.3-40.2,11.2-54.3s36.1-17.9,54.6-9.6c18.4,8.3,29.9,27,29,47.2-1.1,23.1-18,42.3-40.7,46.3s-45.2-8.3-54-29.6h0ZM-1339.6,660.3c2.6-3.9,6.2-9.1,7.4-13.6,6-22.9-21.9-40-45.7-24.5-10.5,28.3,9.5,49.5,33.8,39.3.8-.3,3.9-1.3,4.5-1.2Z"/>
    <path class="st0" d="M-1377.9,622.2c8.9-31.7,65.4-18.1,54.3,19-2,6.6-9.4,16.8-15.9,19.1,2.6-3.9,6.2-9.1,7.4-13.6,6-22.9-21.9-40-45.7-24.5h-.1Z"/>
    <path class="st1" d="M-1048.9,633.1c-.2-27.1,21.5-49.2,48.5-49.5,27.1-.3,49.3,21.4,49.6,48.5s-21.4,49.4-48.5,49.7-49.3-21.5-49.6-48.6h0ZM-979.1,651.5c8.8-31.5-18.4-47.3-43.8-32.1-20.2,19.4,9,65.5,43.8,32.1Z"/>
    <path class="st0" d="M-1022.8,619.4c9.2-29.1,64.8-10.4,48.3,25-1.3,2.7-2,5.2-4.5,7.1,8.8-31.5-18.4-47.3-43.8-32.1Z"/>
    <path class="st1" d="M-1165.5,633.9c0-26.9,21.7-48.6,48.6-48.8,26.9,0,48.8,21.5,49,48.3.3,27.1-21.5,49.2-48.6,49.3s-49.1-21.8-49.1-48.8h.1ZM-1102.4,656.9c15.7-29.4-8-50-36.7-37.5-22,28.2,11.3,56.8,36.7,37.5Z"/>
    <path class="st0" d="M-1139.1,619.4c14.3-29.1,64.5-5,47,27.4-2.1,3.9-5.9,8.8-10.3,10.1,15.7-29.4-8-50-36.7-37.5Z"/>
    <path class="st1" d="M-1283.3,633.9c-.2-26.9,21.5-48.8,48.3-48.9,26.9,0,48.7,21.7,48.7,48.6s-21.6,48.4-48.3,48.5c-26.7,0-48.5-21.4-48.7-48.1h0ZM-1226.5,660.3c28.5-24.9-6.1-61.4-34.2-38.1-.9,3.4-4.1,8.5-4.1,12.3,0,20,19.4,33.7,38.3,25.8h0Z"/>
    <path class="st0" d="M-1260.7,622.2c17.8-39.2,75-3.2,47.6,28.9-2.9,3.4-8.4,9.6-13.5,9.2,28.5-24.9-6.1-61.4-34.2-38.1h.1Z"/>
    <path class="st0" d="M-1120,376.5c4.4-.2,9.3-1,13.7-1.5l1,.2c1,.2,1.2.3,2.2.2l.2.8c4.6,0-2.4.9-3.4,1.6,25.2,1.2,51.2,1.2,76,6.3,2.9.5,10.3,2.6,12.7,2.7,9.6,13.3,24.6,57.9,28.9,74.8-7.6,1.3-18.1,2.8-25.5,4.4-15.1-21.6-34.2-13.9-61.3-12.6-55.9,2.6-111.3,2.5-167.1,4.8-11.6.5-13.9,3.4-18.1,14.1h0c-6.5-14.2-10.8-27.9-9.8-43.8.2-3.8,2.2-7.9,2.1-11.8,12.5-37.6,51.5-36.1,82.8-37.8,21.5-1.1,43.8-2.6,65.5-2.5h0Z"/>
    <path class="st3" d="M-1120,376.5c4.4-.2,9.3-1,13.7-1.5l1,.2c1,.2,1.2.3,2.2.2l.2.8c4.6,0-2.4.9-3.4,1.6-3.2-.1-11.1-.1-13.7-1.4h0Z"/>
    <path class="st0" d="M-1278.3,503.4c12.6-1.4,45.6,3.4,59.9,4.1,66.9,3.2,137.5,3.4,204.2-4,23.9-2.6,41.1-7,65.6-5.6l.9.2c29.9,6.9,95.6.2,111.8,31.3-12.9-.2-24.7.5-37.5,1l-543.6,22.7c-6.5.3-12.8,1.4-18.7,1.7,22.1-23.9,63-48.2,96-51.2,19.4-.7,43.1,1.6,61.5-.2h0Z"/>
    <path class="st0" d="M-721.5,379.7c12.3-1.2,25.5-3.1,37.9-4.7,12.7,7.8,29.8,16.5,12.6,31.6-17.1,3.5-65,10.4-82.2,10.1-14.3-19.1,23.1-31,31.7-37Z"/>
    <path class="st0" d="M-1206.2,356.1c18.7-17,65.4-26.6,90.1-25.3,12.3.7,4,16.1,1.7,22.2l-63.8,2.4c-4.5.2-24.3,1.2-27.9.6h-.1Z"/>
    <path class="st0" d="M-902.2,614.7c13.7-24.3,59.6-3.4,47.2,23.2-7.8-27.7-22.7-31.8-47.2-23.2Z"/>
    <path class="st0" d="M-1260.7,472.3h0c-2.4,4.2-10.8,5.2-12.4,0,4.5-.5,7.9.8,12.4,0Z"/>
  </g>
  <g id="Layer_12" data-name="Layer_1">
    <path class="st1" d="M442.9,298.3c37.9-3.4,51.7,18.3,50,51.7h1.1c18.5.8,48.7-6.3,63.4,2.9,21.1,13.2,35.6,27.9,49,48.7,6.5-1.4,18.8-2.4,26-3.2l115.4-14c11-1.4,26.9-4,37.6-4.7-.8-16.7,6.3-15,20.9-16.8,39.4-4.9,78.8-10.6,118.2-15.1,10.7-1.2,18.4,58.1,20.2,68,2,11.1-16.5,11-23.3,11.8l-117.8,14c-14.7,0-13.1-1.7-14.5-18.1-4.6,0-13.1,1.2-17.8,1.7l-108.9,11.5c-15.3,1.6-30.6,3.6-45.9,5,1.5,15.7,10.4,27.7-10.1,34.1,23-.5,44.8-1.2,68-1.2,41.8,0,59.1-.9,94.6,28.3,8.3,6.8,74.7,63.8,33.9,64.9,12.8,28.9,8.1,61-9.4,86.9-33.4,41.3-57.6,47.8-106.5,49.7l-242.2,9.1c-32.1,1.2-64.3,2.4-96.4,4.1-81.4,4.4-140.6,11.4-210.2-44.2-31.9-25.5-50.7-58.5-28.3-96.1l-5.9.6c-31,3.2-27.5-10.2-9.4-29.2,14.9-15.4,50.1-52.5,66.6-62.7,35.6-21.9,77.9-11.3,117.1-11.5-6.1-28.4-1.9-70.7,14.2-94.9,11.9-17.8,28.9-20,48.1-23.6-.1-17.1-3.9-26.8,8.7-42.4,13.9-17.2,70.1-13.3,93.6-15.4h0ZM163,662.9c68.4,47.8,132.8,33.6,210.5,30.6l220.2-8.1c31.1-1.1,66.1-3.8,96.8-3.6-26.5-7.3-45.1-21.3-46.1-51.2,5.1-60.5,89.6-64.6,97.6-2.9,1,28-15.2,44.2-39.5,52.8,39-3.3,75.9-28.2,82.9-68.6,4.9-23.6-5.8-47.3-29-55.8-19.2-7-47.7-4.3-68.4-2.4l-465.8,19.7c-14.5.6-29.4,1.9-43.9,1.4-19.2,2-34.8-3.4-48.5,14.1-19.9,25.3,11,62.5,33.3,74h-.1ZM468.2,375l1,.2c1,.2,1.2.3,2.2.2l.2.8c4.6,0-2.4.9-3.4,1.6,25.2,1.2,51.2,1.2,76,6.3,2.9.5,10.3,2.6,12.7,2.7-2.5-5.8-9.7-14.9-16.5-15.1-23.7-.4-48.5,3.2-72.2,3.1v.2ZM821.3,416.7c-14.3-19.1,23.1-31,31.7-37-14.3,2.3-30.6,3.7-45.2,5.5,1,10.4,2.1,22.8,3.7,33.1l9.8-1.5h0ZM903.5,406.6c5.5-1.1,10.4-1.3,15.9-1.6l-7-32.3c-7.6.3-14.1,1.1-21.5,2.2,12.7,7.8,29.8,16.5,12.6,31.6h0ZM138.7,554.9c22.1-23.9,63-48.2,96-51.2,19.4-.7,43.1,1.6,61.5-.2-12.2-2.4-24.8-3.1-37-4.5-55-6.4-77.5-8.5-119.5,36.3-6.4,6.8-14,13.2-20.4,20.5,6.4-.3,12.9-.7,19.3-.8h0ZM738.5,529.4c14.3.4,27.1,5.3,39,12.9-36.3-38.3-45.7-45.4-95.7-45.5l-56,1,.9.2c29.9,6.9,95.6.2,111.8,31.3h0ZM301.4,472.3c4.5-.5,7.9.8,12.4,0-6.5-14.2-10.8-27.9-9.8-43.8.2-3.8,2.2-7.9,2.1-11.8-13.1,22.9-4.2,36.4-4.7,55.6h0ZM719.5,637.8c-7.8-27.7-22.7-31.8-47.2-23.2-33,36.5,33.5,74.4,47.2,23.2ZM368.3,356.1c18.7-17,65.4-26.6,90.1-25.3,12.3.7,4,16.1,1.7,22.2h10.4v-.8c-1.1-10.6,3.1-21.1-6.4-29.1-8.9-7.5-38.4-1.1-50.2-.5-8.7.5-41.8-2.2-46.9,4.1-4.1,5-11.4,32.5,1.3,29.3h0Z"/>
    <path class="st0" d="M688,553.7c20.7-1.9,49.2-4.6,68.4,2.4,23.2,8.5,33.9,32.2,29,55.8-14.1,14.3-23.2,15.4-43.4,15.8-8-61.8-92.4-57.6-97.6,2.9-6.1,1-14-.9-20.7,1.4.3,27.1-21.4,49.4-48.5,49.7s-49.3-21.5-49.6-48.6c-7.4-.3-11.6-.3-19,.4.3,27.1-21.5,49.2-48.6,49.3s-49.1-21.8-49.1-48.8c-4.3.4-15.8-.2-20.7-.4,0,26.7-21.6,48.4-48.3,48.5-26.7,0-48.5-21.4-48.7-48.1-6.8,1-12.1,1.1-18.9,1.1-1.1,23.1-18,42.3-40.7,46.3s-45.2-8.3-54-29.6c-4.8,3.9-9.3,7.8-14.5,11.2-22.4-11.6-53.2-48.7-33.3-74,13.7-17.5,29.4-12.1,48.5-14.1,10.2,3.7,187.4-1.2,205.8-1.8l158.2-4.3c31.4-.6,122-3.1,145.7-14.9v-.2ZM234.9,660.3c2.6-3.9,6.2-9.1,7.4-13.6,6-22.9-21.9-40-45.7-24.5-10.5,28.3,9.5,49.5,33.8,39.3.8-.3,3.9-1.3,4.5-1.2ZM595.4,651.5c8.8-31.5-18.4-47.3-43.8-32.1-20.2,19.4,9,65.5,43.8,32.1ZM472.1,656.9c15.7-29.4-8-50-36.7-37.5-22,28.2,11.3,56.8,36.7,37.5ZM348,660.3c28.5-24.9-6.1-61.4-34.2-38.1-.9,3.4-4.1,8.5-4.1,12.3,0,20,19.4,33.7,38.3,25.8h0Z"/>
    <path class="st1" d="M177.5,651.7c-7.8-18.7-3.3-40.2,11.2-54.3s36.1-17.9,54.6-9.6c18.4,8.3,29.9,27,29,47.2-1.1,23.1-18,42.3-40.7,46.3s-45.2-8.3-54-29.6h0ZM234.9,660.3c2.6-3.9,6.2-9.1,7.4-13.6,6-22.9-21.9-40-45.7-24.5-10.5,28.3,9.5,49.5,33.8,39.3.8-.3,3.9-1.3,4.5-1.2Z"/>
    <path class="st0" d="M196.6,622.2c8.9-31.7,65.4-18.1,54.3,19-2,6.6-9.4,16.8-15.9,19.1,2.6-3.9,6.2-9.1,7.4-13.6,6-22.9-21.9-40-45.7-24.5h-.1Z"/>
    <path class="st1" d="M525.6,633.1c-.2-27.1,21.5-49.2,48.5-49.5,27.1-.3,49.3,21.4,49.6,48.5s-21.4,49.4-48.5,49.7-49.3-21.5-49.6-48.6h0ZM595.4,651.5c8.8-31.5-18.4-47.3-43.8-32.1-20.2,19.4,9,65.5,43.8,32.1Z"/>
    <path class="st0" d="M551.7,619.4c9.2-29.1,64.8-10.4,48.3,25-1.3,2.7-2,5.2-4.5,7.1,8.8-31.5-18.4-47.3-43.8-32.1Z"/>
    <path class="st1" d="M409,633.9c0-26.9,21.7-48.6,48.6-48.8,26.9,0,48.8,21.5,49,48.3.3,27.1-21.5,49.2-48.6,49.3s-49.1-21.8-49.1-48.8h.1ZM472.1,656.9c15.7-29.4-8-50-36.7-37.5-22,28.2,11.3,56.8,36.7,37.5Z"/>
    <path class="st0" d="M435.4,619.4c14.3-29.1,64.5-5,47,27.4-2.1,3.9-5.9,8.8-10.3,10.1,15.7-29.4-8-50-36.7-37.5Z"/>
    <path class="st1" d="M291.2,633.9c-.2-26.9,21.5-48.8,48.3-48.9,26.9,0,48.7,21.7,48.7,48.6s-21.6,48.4-48.3,48.5c-26.7,0-48.5-21.4-48.7-48.1h0ZM348,660.3c28.5-24.9-6.1-61.4-34.2-38.1-.9,3.4-4.1,8.5-4.1,12.3,0,20,19.4,33.7,38.3,25.8h0Z"/>
    <path class="st0" d="M313.8,622.2c17.8-39.2,75-3.2,47.6,28.9-2.9,3.4-8.4,9.6-13.5,9.2,28.5-24.9-6.1-61.4-34.2-38.1h.1Z"/>
    <path class="st0" d="M454.5,376.5c4.4-.2,9.3-1,13.7-1.5l1,.2c1,.2,1.2.3,2.2.2l.2.8c4.6,0-2.4.9-3.4,1.6,25.2,1.2,51.2,1.2,76,6.3,2.9.5,10.3,2.6,12.7,2.7,9.6,13.3,24.6,57.9,28.9,74.8-7.6,1.3-18.1,2.8-25.5,4.4-15.1-21.6-34.2-13.9-61.3-12.6-55.9,2.6-111.3,2.5-167.1,4.8-11.6.5-13.9,3.4-18.1,14.1h0c-6.5-14.2-10.8-27.9-9.8-43.8.2-3.8,2.2-7.9,2.1-11.8,12.5-37.6,51.5-36.1,82.8-37.8,21.5-1.1,43.8-2.6,65.5-2.5h0Z"/>
    <path class="st3" d="M454.5,376.5c4.4-.2,9.3-1,13.7-1.5l1,.2c1,.2,1.2.3,2.2.2l.2.8c4.6,0-2.4.9-3.4,1.6-3.2-.1-11.1-.1-13.7-1.4h0Z"/>
    <path class="st0" d="M296.2,503.4c12.6-1.4,45.6,3.4,59.9,4.1,66.9,3.2,137.5,3.4,204.2-4,23.9-2.6,41.1-7,65.6-5.6l.9.2c29.9,6.9,95.6.2,111.8,31.3-12.9-.2-24.7.5-37.5,1l-543.6,22.7c-6.5.3-12.8,1.4-18.7,1.7,22.1-23.9,63-48.2,96-51.2,19.4-.7,43.1,1.6,61.5-.2h0Z"/>
    <path class="st0" d="M853,379.7c12.3-1.2,25.5-3.1,37.9-4.7,12.7,7.8,29.8,16.5,12.6,31.6-17.1,3.5-65,10.4-82.2,10.1-14.3-19.1,23.1-31,31.7-37Z"/>
    <path class="st0" d="M368.3,356.1c18.7-17,65.4-26.6,90.1-25.3,12.3.7,4,16.1,1.7,22.2l-63.8,2.4c-4.5.2-24.3,1.2-27.9.6h-.1Z"/>
    <path class="st0" d="M672.3,614.7c13.7-24.3,59.6-3.4,47.2,23.2-7.8-27.7-22.7-31.8-47.2-23.2Z"/>
    <path class="st0" d="M313.8,472.3h0c-2.4,4.2-10.8,5.2-12.4,0,4.5-.5,7.9.8,12.4,0Z"/>
  </g>
  <g id="Layer_2">
    <path class="st0" d="M25.5,818c31.3-14.4,62.7-28.6,94.2-42.6,3.1-1.4,8.9-3.9,11.8-5.2,20.4-9.3,45.8-5.8,62.8,9,4.9,4.1,16.1,14.3,21.1,18.6,17.2,15.2,34.5,30.4,51.6,45.7l-8.4-.2c25.4-22,70.3-61.3,95.8-83.2,2.5-2.2,5.2-4.2,8.4-5.4,13.8-5.8,30.6,2.3,34.7,16.6,1,3.1,1.2,6.5,1.1,9.7v7.5l.4,59.7-13.5-7.1c25.5-17.5,51.2-34.4,78.1-49.7,11.5-6.3,37.3-21.7,50.3-19.8,12.7,2.1,29.1,21.3,37.7,30.7,13.8,15.6,26.5,31.6,38.9,48.3l-13.4-.9c30.4-31.3,76.3-78.5,106.6-109.1,1.9-1.9,4.6-4,6.9-5.4l2.5-1.5c.9-.4,1.8-.9,2.7-1.3l1.3-.6,1.4-.5c13.7-5.3,30-2.9,41.5,6.2,1.8,1.3,2.8,2.5,4.4,3.8,10.8,11,33,33.8,43.9,45,6.6,6.8,20.3,20.9,26.9,27.8l-9.2,1.2c8.1-13.8,34-58,42-71.1l2.2-3.4,2.5-3.2c10.2-12.4,25.9-19.9,41.9-20.5,5.3,0,10.6.5,15.7,1.7,5.1,1.3,10,3.5,14.4,5.6,21.3,9.8,46.6,21.9,67.9,32-17-6.8-39.3-15.4-55.8-22.1-8.5-3.1-19.2-8.4-27.7-10.2-4.7-.9-9.4-1.2-14.1-.9-15.3,1.3-29.4,9.5-37.9,22.3-10.7,18.9-33.9,62.6-44.6,82.1-24.5-23.6-53.9-52.2-78.3-76.1-.6-.4-1.6-1.5-2.2-1.9l-.8-.6-1.6-1.1c-8-5-17.9-5.7-26.5-2-.5.3-2,1-2.5,1.3-.8.5-1.7,1.1-2.4,1.5-.7.6-1.5,1.2-2.2,1.8-.6.5-1.5,1.5-2.1,2-31.9,34-78.8,82.8-111.3,116.9-14-18.8-28.8-37.7-44.3-55.2-7.2-7.9-14.7-16.2-23.2-22.5-1.4-1-2.5-1.7-3.9-2.3-.2,0,.1,0,.2,0h0c-1.8,0-3.7.7-6.1,1.5-11.4,4.1-22,10-32.8,16.1-31,17.7-61.2,37.6-90.7,57.7.1-16.2.4-66.9.5-83.5,0-1.6.1-3.5-.4-5.1-1.7-6.6-10.7-9.5-15.9-5-.1,0-.4.3-.6.5l-.7.6c-25.7,21.4-71.9,59.7-97.7,80.9l-4.4,3.6-4-3.8c-22.9-21.5-45.9-43.6-68.7-65.2-14.3-14.3-36.8-18.9-55.6-11.3l-4,1.6-8,3.1c-32.1,12.5-64.3,24.9-96.6,37h-.2Z"/>
  </g>
  <g id="Layer_13" data-name="Layer_1">
    <path class="st2" d="M-1131.6-1163.4c37.9-3.4,51.7,18.3,50,51.7h1.1c18.5.8,48.7-6.3,63.4,2.9,21.1,13.2,35.6,27.9,49,48.7,6.5-1.4,18.8-2.4,26-3.2l115.4-14c11-1.4,26.9-4,37.6-4.7-.8-16.7,6.3-15,20.9-16.8,39.4-4.9,78.8-10.6,118.2-15.1,10.7-1.2,18.4,58.1,20.2,68,2,11.1-16.5,11-23.3,11.8l-117.8,14c-14.7,0-13.1-1.7-14.5-18.1-4.6,0-13.1,1.2-17.8,1.7l-108.9,11.5c-15.3,1.6-30.6,3.6-45.9,5,1.5,15.7,10.4,27.7-10.1,34.1,23-.5,44.8-1.2,68-1.2,41.8,0,59.1-.9,94.6,28.3,8.3,6.8,74.7,63.8,33.9,64.9,12.8,28.9,8.1,61-9.4,86.9-33.4,41.3-57.6,47.8-106.5,49.7l-242.2,9.1c-32.1,1.2-64.3,2.4-96.4,4.1-81.4,4.4-140.6,11.4-210.2-44.2-31.9-25.5-50.7-58.5-28.3-96.1l-5.9.6c-31,3.2-27.5-10.2-9.4-29.2,14.9-15.4,50.1-52.5,66.6-62.7,35.6-21.9,77.9-11.3,117.1-11.5-6.1-28.4-1.9-70.7,14.2-94.9,11.9-17.8,28.9-20,48.1-23.6-.1-17.1-3.9-26.8,8.7-42.4,13.9-17.2,70.1-13.3,93.6-15.4h0ZM-1411.5-798.8c68.4,47.8,132.8,33.6,210.5,30.6l220.2-8.1c31.1-1.1,66.1-3.8,96.8-3.6-26.5-7.3-45.1-21.3-46.1-51.2,5.1-60.5,89.6-64.6,97.6-2.9,1,28-15.2,44.2-39.5,52.8,39-3.3,75.9-28.2,82.9-68.6,4.9-23.6-5.8-47.3-29-55.8-19.2-7-47.7-4.3-68.4-2.4l-465.8,19.7c-14.5.6-29.4,1.9-43.9,1.4-19.2,2-34.8-3.4-48.5,14.1-19.9,25.3,11,62.5,33.3,74h-.1ZM-1106.3-1086.7l1,.2c1,.2,1.2.3,2.2.2l.2.8c4.6,0-2.4.9-3.4,1.6,25.2,1.2,51.2,1.2,76,6.3,2.9.5,10.3,2.6,12.7,2.7-2.5-5.8-9.7-14.9-16.5-15.1-23.7-.4-48.5,3.2-72.2,3.1v.2ZM-753.2-1045c-14.3-19.1,23.1-31,31.7-37-14.3,2.3-30.6,3.7-45.2,5.5,1,10.4,2.1,22.8,3.7,33.1l9.8-1.5h0ZM-671-1055.1c5.5-1.1,10.4-1.3,15.9-1.6l-7-32.3c-7.6.3-14.1,1.1-21.5,2.2,12.7,7.8,29.8,16.5,12.6,31.6h0ZM-1435.8-906.8c22.1-23.9,63-48.2,96-51.2,19.4-.7,43.1,1.6,61.5-.2-12.2-2.4-24.8-3.1-37-4.5-55-6.4-77.5-8.5-119.5,36.3-6.4,6.8-14,13.2-20.4,20.5,6.4-.3,12.9-.7,19.3-.8h0ZM-836-932.3c14.3.4,27.1,5.3,39,12.9-36.3-38.3-45.7-45.4-95.7-45.5l-56,1,.9.2c29.9,6.9,95.6.2,111.8,31.3h0ZM-1273.1-989.4c4.5-.5,7.9.8,12.4,0-6.5-14.2-10.8-27.9-9.8-43.8.2-3.8,2.2-7.9,2.1-11.8-13.1,22.9-4.2,36.4-4.7,55.6h0ZM-855-823.9c-7.8-27.7-22.7-31.8-47.2-23.2-33,36.5,33.5,74.4,47.2,23.2ZM-1206.2-1105.6c18.7-17,65.4-26.6,90.1-25.3,12.3.7,4,16.1,1.7,22.2h10.4v-.8c-1.1-10.6,3.1-21.1-6.4-29.1-8.9-7.5-38.4-1.1-50.2-.5-8.7.5-41.8-2.2-46.9,4.1-4.1,5-11.4,32.5,1.3,29.3h0Z"/>
    <path class="st0" d="M-886.5-908c20.7-1.9,49.2-4.6,68.4,2.4,23.2,8.5,33.9,32.2,29,55.8-14.1,14.3-23.2,15.4-43.4,15.8-8-61.8-92.4-57.6-97.6,2.9-6.1,1-14-.9-20.7,1.4.3,27.1-21.4,49.4-48.5,49.7s-49.3-21.5-49.6-48.6c-7.4-.3-11.6-.3-19,.4.3,27.1-21.5,49.2-48.6,49.3s-49.1-21.8-49.1-48.8c-4.3.4-15.8-.2-20.7-.4,0,26.7-21.6,48.4-48.3,48.5-26.7,0-48.5-21.4-48.7-48.1-6.8,1-12.1,1.1-18.9,1.1-1.1,23.1-18,42.3-40.7,46.3s-45.2-8.3-54-29.6c-4.8,3.9-9.3,7.8-14.5,11.2-22.4-11.6-53.2-48.7-33.3-74,13.7-17.5,29.4-12.1,48.5-14.1,10.2,3.7,187.4-1.2,205.8-1.8l158.2-4.3c31.4-.6,122-3.1,145.7-14.9v-.2ZM-1339.6-801.4c2.6-3.9,6.2-9.1,7.4-13.6,6-22.9-21.9-40-45.7-24.5-10.5,28.3,9.5,49.5,33.8,39.3.8-.3,3.9-1.3,4.5-1.2ZM-979.1-810.2c8.8-31.5-18.4-47.3-43.8-32.1-20.2,19.4,9,65.5,43.8,32.1ZM-1102.4-804.8c15.7-29.4-8-50-36.7-37.5-22,28.2,11.3,56.8,36.7,37.5ZM-1226.5-801.4c28.5-24.9-6.1-61.4-34.2-38.1-.9,3.4-4.1,8.5-4.1,12.3,0,20,19.4,33.7,38.3,25.8h0Z"/>
    <path class="st2" d="M-1397-810c-7.8-18.7-3.3-40.2,11.2-54.3s36.1-17.9,54.6-9.6c18.4,8.3,29.9,27,29,47.2-1.1,23.1-18,42.3-40.7,46.3s-45.2-8.3-54-29.6h0ZM-1339.6-801.4c2.6-3.9,6.2-9.1,7.4-13.6,6-22.9-21.9-40-45.7-24.5-10.5,28.3,9.5,49.5,33.8,39.3.8-.3,3.9-1.3,4.5-1.2Z"/>
    <path class="st0" d="M-1377.9-839.5c8.9-31.7,65.4-18.1,54.3,19-2,6.6-9.4,16.8-15.9,19.1,2.6-3.9,6.2-9.1,7.4-13.6,6-22.9-21.9-40-45.7-24.5h-.1Z"/>
    <path class="st2" d="M-1048.9-828.6c-.2-27.1,21.5-49.2,48.5-49.5,27.1-.3,49.3,21.4,49.6,48.5s-21.4,49.4-48.5,49.7-49.3-21.5-49.6-48.6h0ZM-979.1-810.2c8.8-31.5-18.4-47.3-43.8-32.1-20.2,19.4,9,65.5,43.8,32.1Z"/>
    <path class="st0" d="M-1022.8-842.3c9.2-29.1,64.8-10.4,48.3,25-1.3,2.7-2,5.2-4.5,7.1,8.8-31.5-18.4-47.3-43.8-32.1Z"/>
    <path class="st2" d="M-1165.5-827.8c0-26.9,21.7-48.6,48.6-48.8,26.9,0,48.8,21.5,49,48.3.3,27.1-21.5,49.2-48.6,49.3s-49.1-21.8-49.1-48.8h.1ZM-1102.4-804.8c15.7-29.4-8-50-36.7-37.5-22,28.2,11.3,56.8,36.7,37.5Z"/>
    <path class="st0" d="M-1139.1-842.3c14.3-29.1,64.5-5,47,27.4-2.1,3.9-5.9,8.8-10.3,10.1,15.7-29.4-8-50-36.7-37.5Z"/>
    <path class="st2" d="M-1283.3-827.8c-.2-26.9,21.5-48.8,48.3-48.9,26.9,0,48.7,21.7,48.7,48.6s-21.6,48.4-48.3,48.5c-26.7,0-48.5-21.4-48.7-48.1h0ZM-1226.5-801.4c28.5-24.9-6.1-61.4-34.2-38.1-.9,3.4-4.1,8.5-4.1,12.3,0,20,19.4,33.7,38.3,25.8h0Z"/>
    <path class="st0" d="M-1260.7-839.5c17.8-39.2,75-3.2,47.6,28.9-2.9,3.4-8.4,9.6-13.5,9.2,28.5-24.9-6.1-61.4-34.2-38.1h.1Z"/>
    <path class="st0" d="M-1120-1085.2c4.4-.2,9.3-1,13.7-1.5l1,.2c1,.2,1.2.3,2.2.2l.2.8c4.6,0-2.4.9-3.4,1.6,25.2,1.2,51.2,1.2,76,6.3,2.9.5,10.3,2.6,12.7,2.7,9.6,13.3,24.6,57.9,28.9,74.8-7.6,1.3-18.1,2.8-25.5,4.4-15.1-21.6-34.2-13.9-61.3-12.6-55.9,2.6-111.3,2.5-167.1,4.8-11.6.5-13.9,3.4-18.1,14.1h0c-6.5-14.2-10.8-27.9-9.8-43.8.2-3.8,2.2-7.9,2.1-11.8,12.5-37.6,51.5-36.1,82.8-37.8,21.5-1.1,43.8-2.6,65.5-2.5h0Z"/>
    <path class="st3" d="M-1120-1085.2c4.4-.2,9.3-1,13.7-1.5l1,.2c1,.2,1.2.3,2.2.2l.2.8c4.6,0-2.4.9-3.4,1.6-3.2-.1-11.1-.1-13.7-1.4h0Z"/>
    <path class="st0" d="M-1278.3-958.3c12.6-1.4,45.6,3.4,59.9,4.1,66.9,3.2,137.5,3.4,204.2-4,23.9-2.6,41.1-7,65.6-5.6l.9.2c29.9,6.9,95.6.2,111.8,31.3-12.9-.2-24.7.5-37.5,1l-543.6,22.7c-6.5.3-12.8,1.4-18.7,1.7,22.1-23.9,63-48.2,96-51.2,19.4-.7,43.1,1.6,61.5-.2h0Z"/>
    <path class="st0" d="M-721.5-1082c12.3-1.2,25.5-3.1,37.9-4.7,12.7,7.8,29.8,16.5,12.6,31.6-17.1,3.5-65,10.4-82.2,10.1-14.3-19.1,23.1-31,31.7-37Z"/>
    <path class="st0" d="M-1206.2-1105.6c18.7-17,65.4-26.6,90.1-25.3,12.3.7,4,16.1,1.7,22.2l-63.8,2.4c-4.5.2-24.3,1.2-27.9.6h-.1Z"/>
    <path class="st0" d="M-902.2-847c13.7-24.3,59.6-3.4,47.2,23.2-7.8-27.7-22.7-31.8-47.2-23.2Z"/>
    <path class="st0" d="M-1260.7-989.4h0c-2.4,4.2-10.8,5.2-12.4,0,4.5-.5,7.9.8,12.4,0Z"/>
  </g>
  <g id="Layer_14" data-name="Layer_1">
    <path class="st2" d="M442.9-1163.4c37.9-3.4,51.7,18.3,50,51.7h1.1c18.5.8,48.7-6.3,63.4,2.9,21.1,13.2,35.6,27.9,49,48.7,6.5-1.4,18.8-2.4,26-3.2l115.4-14c11-1.4,26.9-4,37.6-4.7-.8-16.7,6.3-15,20.9-16.8,39.4-4.9,78.8-10.6,118.2-15.1,10.7-1.2,18.4,58.1,20.2,68,2,11.1-16.5,11-23.3,11.8l-117.8,14c-14.7,0-13.1-1.7-14.5-18.1-4.6,0-13.1,1.2-17.8,1.7l-108.9,11.5c-15.3,1.6-30.6,3.6-45.9,5,1.5,15.7,10.4,27.7-10.1,34.1,23-.5,44.8-1.2,68-1.2,41.8,0,59.1-.9,94.6,28.3,8.3,6.8,74.7,63.8,33.9,64.9,12.8,28.9,8.1,61-9.4,86.9-33.4,41.3-57.6,47.8-106.5,49.7l-242.2,9.1c-32.1,1.2-64.3,2.4-96.4,4.1-81.4,4.4-140.6,11.4-210.2-44.2-31.9-25.5-50.7-58.5-28.3-96.1l-5.9.6c-31,3.2-27.5-10.2-9.4-29.2,14.9-15.4,50.1-52.5,66.6-62.7,35.6-21.9,77.9-11.3,117.1-11.5-6.1-28.4-1.9-70.7,14.2-94.9,11.9-17.8,28.9-20,48.1-23.6-.1-17.1-3.9-26.8,8.7-42.4,13.9-17.2,70.1-13.3,93.6-15.4h0ZM163-798.8c68.4,47.8,132.8,33.6,210.5,30.6l220.2-8.1c31.1-1.1,66.1-3.8,96.8-3.6-26.5-7.3-45.1-21.3-46.1-51.2,5.1-60.5,89.6-64.6,97.6-2.9,1,28-15.2,44.2-39.5,52.8,39-3.3,75.9-28.2,82.9-68.6,4.9-23.6-5.8-47.3-29-55.8-19.2-7-47.7-4.3-68.4-2.4l-465.8,19.7c-14.5.6-29.4,1.9-43.9,1.4-19.2,2-34.8-3.4-48.5,14.1-19.9,25.3,11,62.5,33.3,74h-.1ZM468.2-1086.7l1,.2c1,.2,1.2.3,2.2.2l.2.8c4.6,0-2.4.9-3.4,1.6,25.2,1.2,51.2,1.2,76,6.3,2.9.5,10.3,2.6,12.7,2.7-2.5-5.8-9.7-14.9-16.5-15.1-23.7-.4-48.5,3.2-72.2,3.1v.2ZM821.3-1045c-14.3-19.1,23.1-31,31.7-37-14.3,2.3-30.6,3.7-45.2,5.5,1,10.4,2.1,22.8,3.7,33.1l9.8-1.5h0ZM903.5-1055.1c5.5-1.1,10.4-1.3,15.9-1.6l-7-32.3c-7.6.3-14.1,1.1-21.5,2.2,12.7,7.8,29.8,16.5,12.6,31.6h0ZM138.7-906.8c22.1-23.9,63-48.2,96-51.2,19.4-.7,43.1,1.6,61.5-.2-12.2-2.4-24.8-3.1-37-4.5-55-6.4-77.5-8.5-119.5,36.3-6.4,6.8-14,13.2-20.4,20.5,6.4-.3,12.9-.7,19.3-.8h0ZM738.5-932.3c14.3.4,27.1,5.3,39,12.9-36.3-38.3-45.7-45.4-95.7-45.5l-56,1,.9.2c29.9,6.9,95.6.2,111.8,31.3h0ZM301.4-989.4c4.5-.5,7.9.8,12.4,0-6.5-14.2-10.8-27.9-9.8-43.8.2-3.8,2.2-7.9,2.1-11.8-13.1,22.9-4.2,36.4-4.7,55.6h0ZM719.5-823.9c-7.8-27.7-22.7-31.8-47.2-23.2-33,36.5,33.5,74.4,47.2,23.2ZM368.3-1105.6c18.7-17,65.4-26.6,90.1-25.3,12.3.7,4,16.1,1.7,22.2h10.4v-.8c-1.1-10.6,3.1-21.1-6.4-29.1-8.9-7.5-38.4-1.1-50.2-.5-8.7.5-41.8-2.2-46.9,4.1-4.1,5-11.4,32.5,1.3,29.3h0Z"/>
    <path class="st0" d="M688-908c20.7-1.9,49.2-4.6,68.4,2.4,23.2,8.5,33.9,32.2,29,55.8-14.1,14.3-23.2,15.4-43.4,15.8-8-61.8-92.4-57.6-97.6,2.9-6.1,1-14-.9-20.7,1.4.3,27.1-21.4,49.4-48.5,49.7s-49.3-21.5-49.6-48.6c-7.4-.3-11.6-.3-19,.4.3,27.1-21.5,49.2-48.6,49.3s-49.1-21.8-49.1-48.8c-4.3.4-15.8-.2-20.7-.4,0,26.7-21.6,48.4-48.3,48.5-26.7,0-48.5-21.4-48.7-48.1-6.8,1-12.1,1.1-18.9,1.1-1.1,23.1-18,42.3-40.7,46.3s-45.2-8.3-54-29.6c-4.8,3.9-9.3,7.8-14.5,11.2-22.4-11.6-53.2-48.7-33.3-74,13.7-17.5,29.4-12.1,48.5-14.1,10.2,3.7,187.4-1.2,205.8-1.8l158.2-4.3c31.4-.6,122-3.1,145.7-14.9v-.2ZM234.9-801.4c2.6-3.9,6.2-9.1,7.4-13.6,6-22.9-21.9-40-45.7-24.5-10.5,28.3,9.5,49.5,33.8,39.3.8-.3,3.9-1.3,4.5-1.2ZM595.4-810.2c8.8-31.5-18.4-47.3-43.8-32.1-20.2,19.4,9,65.5,43.8,32.1ZM472.1-804.8c15.7-29.4-8-50-36.7-37.5-22,28.2,11.3,56.8,36.7,37.5ZM348-801.4c28.5-24.9-6.1-61.4-34.2-38.1-.9,3.4-4.1,8.5-4.1,12.3,0,20,19.4,33.7,38.3,25.8h0Z"/>
    <path class="st2" d="M177.5-810c-7.8-18.7-3.3-40.2,11.2-54.3s36.1-17.9,54.6-9.6c18.4,8.3,29.9,27,29,47.2-1.1,23.1-18,42.3-40.7,46.3s-45.2-8.3-54-29.6h0ZM234.9-801.4c2.6-3.9,6.2-9.1,7.4-13.6,6-22.9-21.9-40-45.7-24.5-10.5,28.3,9.5,49.5,33.8,39.3.8-.3,3.9-1.3,4.5-1.2Z"/>
    <path class="st0" d="M196.6-839.5c8.9-31.7,65.4-18.1,54.3,19-2,6.6-9.4,16.8-15.9,19.1,2.6-3.9,6.2-9.1,7.4-13.6,6-22.9-21.9-40-45.7-24.5h-.1Z"/>
    <path class="st2" d="M525.6-828.6c-.2-27.1,21.5-49.2,48.5-49.5,27.1-.3,49.3,21.4,49.6,48.5s-21.4,49.4-48.5,49.7-49.3-21.5-49.6-48.6h0ZM595.4-810.2c8.8-31.5-18.4-47.3-43.8-32.1-20.2,19.4,9,65.5,43.8,32.1Z"/>
    <path class="st0" d="M551.7-842.3c9.2-29.1,64.8-10.4,48.3,25-1.3,2.7-2,5.2-4.5,7.1,8.8-31.5-18.4-47.3-43.8-32.1Z"/>
    <path class="st2" d="M409-827.8c0-26.9,21.7-48.6,48.6-48.8,26.9,0,48.8,21.5,49,48.3.3,27.1-21.5,49.2-48.6,49.3s-49.1-21.8-49.1-48.8h.1ZM472.1-804.8c15.7-29.4-8-50-36.7-37.5-22,28.2,11.3,56.8,36.7,37.5Z"/>
    <path class="st0" d="M435.4-842.3c14.3-29.1,64.5-5,47,27.4-2.1,3.9-5.9,8.8-10.3,10.1,15.7-29.4-8-50-36.7-37.5Z"/>
    <path class="st2" d="M291.2-827.8c-.2-26.9,21.5-48.8,48.3-48.9,26.9,0,48.7,21.7,48.7,48.6s-21.6,48.4-48.3,48.5c-26.7,0-48.5-21.4-48.7-48.1h0ZM348-801.4c28.5-24.9-6.1-61.4-34.2-38.1-.9,3.4-4.1,8.5-4.1,12.3,0,20,19.4,33.7,38.3,25.8h0Z"/>
    <path class="st0" d="M313.8-839.5c17.8-39.2,75-3.2,47.6,28.9-2.9,3.4-8.4,9.6-13.5,9.2,28.5-24.9-6.1-61.4-34.2-38.1h.1Z"/>
    <path class="st0" d="M454.5-1085.2c4.4-.2,9.3-1,13.7-1.5l1,.2c1,.2,1.2.3,2.2.2l.2.8c4.6,0-2.4.9-3.4,1.6,25.2,1.2,51.2,1.2,76,6.3,2.9.5,10.3,2.6,12.7,2.7,9.6,13.3,24.6,57.9,28.9,74.8-7.6,1.3-18.1,2.8-25.5,4.4-15.1-21.6-34.2-13.9-61.3-12.6-55.9,2.6-111.3,2.5-167.1,4.8-11.6.5-13.9,3.4-18.1,14.1h0c-6.5-14.2-10.8-27.9-9.8-43.8.2-3.8,2.2-7.9,2.1-11.8,12.5-37.6,51.5-36.1,82.8-37.8,21.5-1.1,43.8-2.6,65.5-2.5h0Z"/>
    <path class="st3" d="M454.5-1085.2c4.4-.2,9.3-1,13.7-1.5l1,.2c1,.2,1.2.3,2.2.2l.2.8c4.6,0-2.4.9-3.4,1.6-3.2-.1-11.1-.1-13.7-1.4h0Z"/>
    <path class="st0" d="M296.2-958.3c12.6-1.4,45.6,3.4,59.9,4.1,66.9,3.2,137.5,3.4,204.2-4,23.9-2.6,41.1-7,65.6-5.6l.9.2c29.9,6.9,95.6.2,111.8,31.3-12.9-.2-24.7.5-37.5,1l-543.6,22.7c-6.5.3-12.8,1.4-18.7,1.7,22.1-23.9,63-48.2,96-51.2,19.4-.7,43.1,1.6,61.5-.2h0Z"/>
    <path class="st0" d="M853-1082c12.3-1.2,25.5-3.1,37.9-4.7,12.7,7.8,29.8,16.5,12.6,31.6-17.1,3.5-65,10.4-82.2,10.1-14.3-19.1,23.1-31,31.7-37Z"/>
    <path class="st0" d="M368.3-1105.6c18.7-17,65.4-26.6,90.1-25.3,12.3.7,4,16.1,1.7,22.2l-63.8,2.4c-4.5.2-24.3,1.2-27.9.6h-.1Z"/>
    <path class="st0" d="M672.3-847c13.7-24.3,59.6-3.4,47.2,23.2-7.8-27.7-22.7-31.8-47.2-23.2Z"/>
    <path class="st0" d="M313.8-989.4h0c-2.4,4.2-10.8,5.2-12.4,0,4.5-.5,7.9.8,12.4,0Z"/>
  </g>
  <g id="Layer_21" data-name="Layer_2">
    <path class="st2" d="M25.5-643.7c31.3-14.4,62.7-28.6,94.2-42.6,3.1-1.4,8.9-3.9,11.8-5.2,20.4-9.3,45.8-5.8,62.8,9,4.9,4.1,16.1,14.3,21.1,18.6,17.2,15.2,34.5,30.4,51.6,45.7l-8.4-.2c25.4-22,70.3-61.3,95.8-83.2,2.5-2.2,5.2-4.2,8.4-5.4,13.8-5.8,30.6,2.3,34.7,16.6,1,3.1,1.2,6.5,1.1,9.7v7.5l.4,59.7-13.5-7.1c25.5-17.5,51.2-34.4,78.1-49.7,11.5-6.3,37.3-21.7,50.3-19.8,12.7,2.1,29.1,21.3,37.7,30.7,13.8,15.6,26.5,31.6,38.9,48.3l-13.4-.9c30.4-31.3,76.3-78.5,106.6-109.1,1.9-1.9,4.6-4,6.9-5.4l2.5-1.5c.9-.4,1.8-.9,2.7-1.3l1.3-.6,1.4-.5c13.7-5.3,30-2.9,41.5,6.2,1.8,1.3,2.8,2.5,4.4,3.8,10.8,11,33,33.8,43.9,45,6.6,6.8,20.3,20.9,26.9,27.8l-9.2,1.2c8.1-13.8,34-58,42-71.1l2.2-3.4,2.5-3.2c10.2-12.4,25.9-19.9,41.9-20.5,5.3,0,10.6.5,15.7,1.7,5.1,1.3,10,3.5,14.4,5.6,21.3,9.8,46.6,21.9,67.9,32-17-6.8-39.3-15.4-55.8-22.1-8.5-3.1-19.2-8.4-27.7-10.2-4.7-.9-9.4-1.2-14.1-.9-15.3,1.3-29.4,9.5-37.9,22.3-10.7,18.9-33.9,62.6-44.6,82.1-24.5-23.6-53.9-52.2-78.3-76.1-.6-.4-1.6-1.5-2.2-1.9l-.8-.6-1.6-1.1c-8-5-17.9-5.7-26.5-2-.5.3-2,1-2.5,1.3-.8.5-1.7,1.1-2.4,1.5-.7.6-1.5,1.2-2.2,1.8-.6.5-1.5,1.5-2.1,2-31.9,34-78.8,82.8-111.3,116.9-14-18.8-28.8-37.7-44.3-55.2-7.2-7.9-14.7-16.2-23.2-22.5-1.4-1-2.5-1.7-3.9-2.3-.2,0,.1,0,.2,0h0c-1.8,0-3.7.7-6.1,1.5-11.4,4.1-22,10-32.8,16.1-31,17.7-61.2,37.6-90.7,57.7.1-16.2.4-66.9.5-83.5,0-1.6.1-3.5-.4-5.1-1.7-6.6-10.7-9.5-15.9-5-.1,0-.4.3-.6.5l-.7.6c-25.7,21.4-71.9,59.7-97.7,80.9l-4.4,3.6-4-3.8c-22.9-21.5-45.9-43.6-68.7-65.2-14.3-14.3-36.8-18.9-55.6-11.3l-4,1.6-8,3.1c-32.1,12.5-64.3,24.9-96.6,37h-.2Z"/>
  </g>
</svg>