<svg width="35" height="34" viewBox="0 0 35 34" fill="none" xmlns="http://www.w3.org/2000/svg">
<path d="M16.4375 26.5625V5.3125C16.4375 5.03071 16.5494 4.76046 16.7487 4.5612C16.948 4.36194 17.2182 4.25 17.5 4.25C17.7818 4.25 18.052 4.36194 18.2513 4.5612C18.4506 4.76046 18.5625 5.03071 18.5625 5.3125V26.5625C18.5625 26.8443 18.4506 27.1145 18.2513 27.3138C18.052 27.5131 17.7818 27.625 17.5 27.625C17.2182 27.625 16.948 27.5131 16.7487 27.3138C16.5494 27.1145 16.4375 26.8443 16.4375 26.5625Z" fill="#384D22"/>
<path d="M17.5001 26.1227L26.3104 17.3103C26.5099 17.1108 26.7805 16.9987 27.0626 16.9987C27.3448 16.9987 27.6154 17.1108 27.8149 17.3103C28.0144 17.5098 28.1265 17.7804 28.1265 18.0626C28.1265 18.3447 28.0144 18.6153 27.8149 18.8148L18.2524 28.3773C18.1537 28.4763 18.0364 28.5548 17.9073 28.6083C17.7783 28.6619 17.6399 28.6895 17.5001 28.6895C17.3604 28.6895 17.222 28.6619 17.0929 28.6083C16.9638 28.5548 16.8466 28.4763 16.7479 28.3773L7.18537 18.8148C6.98586 18.6153 6.87378 18.3447 6.87378 18.0626C6.87378 17.7804 6.98586 17.5098 7.18537 17.3103C7.38488 17.1108 7.65547 16.9987 7.93762 16.9987C8.21977 16.9987 8.49036 17.1108 8.68987 17.3103L17.5001 26.1227Z" fill="#384D22"/>
</svg>
