<svg width="278" height="149" viewBox="0 0 278 149" fill="none" xmlns="http://www.w3.org/2000/svg">
<path d="M135.314 136.268C63.3517 135.744 4.98618 136.666 4.94985 138.329C4.91351 139.993 63.2202 141.768 135.181 142.293C207.142 142.818 265.509 141.896 265.547 140.232C265.584 138.569 207.276 136.795 135.314 136.268Z" fill="#939598" style="mix-blend-mode:multiply"/>
<path d="M173.812 46.5577C173.916 50.4289 171.121 53.6436 167.57 53.7401C164.017 53.8353 161.053 50.7759 160.949 46.9048C160.845 43.0336 163.64 39.8189 167.191 39.7224C170.743 39.626 173.709 42.6866 173.812 46.5577Z" fill="#F7941D"/>
<path d="M182.823 43.9303C182.927 47.8015 180.132 51.0161 176.58 51.1126C173.027 51.2078 170.063 48.1485 169.959 44.2773C169.855 40.4062 172.65 37.1915 176.203 37.095C179.755 36.9985 182.719 40.0591 182.823 43.9303Z" fill="#F7941D"/>
<path d="M191.575 49.1094C191.679 52.9806 188.884 56.1953 185.331 56.2918C181.779 56.387 178.814 53.3276 178.71 49.4565C178.606 45.5853 181.401 42.3706 184.954 42.2741C188.505 42.1789 191.47 45.2395 191.575 49.1094Z" fill="#F7941D"/>
<path d="M200.073 48.171C200.177 52.0422 197.382 55.2569 193.829 55.3533C190.277 55.4485 187.312 52.3892 187.208 48.518C187.104 44.6469 189.899 41.4322 193.451 41.3357C197.004 41.2392 199.967 44.2998 200.073 48.171Z" fill="#F7941D"/>
<path d="M191.934 39.4103C192.038 43.2814 189.243 46.4961 185.692 46.5926C182.14 46.689 179.175 43.6284 179.071 39.7573C178.967 35.8861 181.762 32.6714 185.313 32.575C188.866 32.4785 191.83 35.5391 191.934 39.4103Z" fill="#F7941D"/>
<path d="M203.949 50.3749C204.053 54.246 201.258 57.4607 197.706 57.5572C194.153 57.6524 191.189 54.5931 191.085 50.7219C190.981 46.8507 193.776 43.636 197.328 43.5396C200.881 43.4431 203.845 46.5037 203.949 50.3749Z" fill="#F7941D"/>
<path d="M160.245 63.6335L157.853 47.342L205.881 50.5229L200.153 68.5996L160.245 63.6335Z" fill="#B1D090"/>
<path d="M227.12 50.3589C227.224 54.2301 224.429 57.4448 220.878 57.5412C217.325 57.6365 214.361 54.5771 214.257 50.706C214.153 46.8348 216.948 43.6201 220.499 43.5236C224.052 43.4284 227.017 46.489 227.12 50.3589Z" fill="#F7941D"/>
<path d="M232.521 46.4852C232.625 50.3564 229.83 53.5711 226.279 53.6675C222.726 53.7628 219.761 50.7034 219.657 46.8322C219.553 42.9611 222.348 39.7464 225.9 39.6499C229.452 39.5535 232.417 42.6141 232.521 46.4852Z" fill="#F7941D"/>
<path d="M244.969 49.879C245.073 53.7502 242.278 56.9649 238.725 57.0613C235.174 57.1566 232.208 54.0959 232.104 50.226C232 46.3549 234.795 43.1402 238.347 43.0437C241.901 42.9473 244.865 46.0079 244.969 49.879Z" fill="#F7941D"/>
<path d="M241.29 45.0946C241.394 48.9658 238.599 52.1805 235.047 52.2769C231.494 52.3721 228.53 49.3128 228.426 45.4416C228.322 41.5705 231.117 38.3558 234.669 38.2593C238.22 38.1628 241.184 41.2234 241.29 45.0946Z" fill="#F7941D"/>
<path d="M250.176 46.0088C250.28 49.88 247.485 53.0947 243.933 53.1912C240.38 53.2864 237.416 50.2258 237.312 46.3559C237.208 42.4847 240.003 39.27 243.555 39.1736C247.108 39.0783 250.072 42.1377 250.176 46.0088Z" fill="#F7941D"/>
<path d="M257.82 49.0184C257.924 52.8895 255.129 56.1042 251.578 56.2007C248.025 56.2959 245.061 53.2366 244.957 49.3654C244.853 45.4942 247.648 42.2795 251.199 42.1831C254.751 42.0879 257.715 45.1472 257.82 49.0184Z" fill="#F7941D"/>
<path d="M217.79 67.2953L213.501 51.3985L261.571 48.918L258.006 67.5409L217.79 67.2953Z" fill="#B1D090"/>
<path d="M6.84782 68.8352L0 71.6828L3.34248 91.9695L10.1803 93.6482L6.84782 68.8352Z" fill="#F7941D"/>
<path d="M265.99 94.515L273.33 93.4502L275.112 72.9681L268.903 69.6494L265.99 94.515Z" fill="#F7941D"/>
<path d="M22.6958 110.048L108.599 115.192L104.521 75.8811L30.5784 73.0786L24.5775 87.6237L22.6958 110.048Z" fill="#5A6C6E"/>
<path d="M168.586 116.571L254.64 115.904L247.918 76.9595L173.955 79.1544L168.949 94.0715L168.586 116.571Z" fill="#5A6C6E"/>
<path d="M143.972 57.9684L141.156 3.60055L90.5376 0L73.7738 60.2786L4.42743 62.1465L10.1916 109.322L27.9726 109.703C30.7087 95.8908 42.6968 85.3046 57.3658 84.91C73.061 84.4865 86.3219 95.8782 88.6446 111.002L137.275 112.043L178.214 112.824C179.845 97.7274 192.415 85.7832 208.014 85.3635C224.576 84.9175 238.433 97.6246 239.581 113.994L268.895 114.553L271.879 63.2377L143.972 57.9684Z" fill="#384D22"/>
<path d="M76.5688 67.3232L5.46979 70.6783L5.72787 72.798L76.6064 69.4518L137.33 70.1796L271.209 74.7586L271.333 72.6314L137.379 68.0499L76.5688 67.3232Z" fill="white"/>
<path d="M246.216 112.319L277.735 113.901L276.81 119.12L245.876 116.474L246.216 112.319Z" fill="#F7941D"/>
<path d="M75.7446 131.118C84.2515 121.425 83.2897 106.67 73.5962 98.1636C63.9028 89.6567 49.1485 90.6185 40.6415 100.312C32.1346 110.005 33.0965 124.76 42.7899 133.267C52.4834 141.774 67.2377 140.812 75.7446 131.118Z" fill="#414042"/>
<path d="M68.2313 115.446C68.0823 109.903 63.4682 105.531 57.9258 105.68C52.3834 105.829 48.0111 110.443 48.1602 115.987C48.3093 121.529 52.9233 125.902 58.467 125.753C64.0081 125.602 68.3804 120.988 68.2313 115.446Z" fill="#B1D090"/>
<path d="M214.893 139.324C227.683 135.986 235.346 122.912 232.008 110.121C228.671 97.3305 215.596 89.6675 202.806 93.0053C190.015 96.343 182.352 109.418 185.69 122.208C189.028 134.999 202.102 142.662 214.893 139.324Z" fill="#414042"/>
<path d="M218.88 115.899C218.73 110.357 214.116 105.985 208.573 106.134C203.03 106.283 198.658 110.897 198.807 116.441C198.956 121.983 203.57 126.355 209.113 126.206C214.658 126.056 219.029 121.442 218.88 115.899Z" fill="#B1D090"/>
<path d="M247.142 103.202C247.142 103.202 238.755 73.7361 208.137 74.5604C177.518 75.3848 171.923 105.229 171.923 105.229L95.674 101.17C95.674 101.17 85.4136 74.5918 58.4896 75.3171C31.5656 76.0425 22.9463 98.9813 22.9463 98.9813L2.73987 97.7786L3.26229 117.196L27.4464 117.644C27.4238 117.28 27.3988 116.915 27.3888 116.547C26.9302 99.5325 40.3515 85.3684 57.3658 84.9098C74.3801 84.4513 88.5443 97.8726 89.0028 114.887C89.0379 116.205 88.9803 117.504 88.855 118.782L178.328 120.439C178.171 119.311 178.07 118.164 178.038 116.999C177.58 99.9848 191.001 85.8206 208.015 85.3621C225.03 84.9036 239.194 98.3249 239.652 115.339C239.71 117.466 239.55 119.55 239.194 121.567L272.168 122.178L272.939 102.508L247.142 103.202Z" fill="#B1D090"/>
<path d="M96.2616 6.5874L81.6902 61.3374L132.326 59.9731L133.763 10.1053L96.2616 6.5874Z" fill="#AEC1D0"/>
<path d="M120.617 40.6227L114.609 30.0287L105.247 23.5271L104.142 32.2728L106.596 32.7716L109.356 40.6666L113.151 45.7494" fill="#D89560"/>
<path d="M118.268 36.4801L116.301 35.4706L111.43 35.805L108.986 29.7654L104.756 27.4136L105.247 23.5271L114.609 30.0287L118.268 36.4801Z" fill="#C17A42"/>
<path d="M118.311 36.5027L119.842 27.3404L116.311 25.2303L114.239 20.6943L101.327 18.4653L99 23.4084L105.247 23.5273L112.562 30.7983L112.571 34.6552L115.043 35.0359L116.193 33.044L118.311 36.5027Z" fill="#F7941D"/>
<path d="M126 60.1001L127.587 52.545L120.623 40.6797L111.965 44.3267L109 60.6001L126 60.1001Z" fill="#4A4A34"/>
<path d="M115.51 29.1001C115.51 29.1001 111.4 40.2477 109.158 40.2477C106.916 40.2477 108.453 43.4593 109.407 43.0668C110.653 42.5543 114.388 39.0943 118 31.2784L115.51 29.1001Z" fill="#FAF2AC"/>
<path d="M106 18.6502L117.859 36.1001C117.859 36.1001 129.381 29.2115 123.154 18.7717C116.927 8.33194 106 18.6502 106 18.6502Z" fill="#8C7A18"/>
<path d="M114 20.4858L118.972 36.1001C118.972 36.1001 119.804 35.7537 120 35.0608L115.004 19.1001" fill="#B9B16B"/>
<path d="M107 17.2993C107 17.2993 111.296 21.0966 113.838 19.8482C116.38 18.5998 113.959 14.1001 113.959 14.1001C113.959 14.1001 109.662 14.4898 107 17.2993Z" fill="#B9B16B"/>
<path d="M107 16.7866C107.469 17.1578 110.999 19.8624 113.066 18.8907C115.138 17.9168 113.155 14.5378 112.887 14.1001C111.395 14.4112 108.936 15.1413 107 16.7866Z" fill="#514629"/>
<path opacity="0.5" d="M92.7976 19.6026L87.6436 38.9697L127.788 9.54386L108.934 7.7749L92.7976 19.6026Z" fill="white"/>
<path opacity="0.5" d="M133.531 18.1471L133.76 10.1843L85.9836 45.2039L83.4066 54.8868L133.531 18.1471Z" fill="white"/>
<path opacity="0.5" d="M124.5 60.1834L132.489 54.3278L132.718 46.365L113.46 60.4803L124.5 60.1834Z" fill="white"/>
<path d="M92.6247 3.40015L76.5112 64.3841L76.8407 76.6277C76.8407 76.6277 91.3431 81.0752 97.2764 98.6282L137.82 99.4901L136.652 7.02951L92.6247 3.40015Z" stroke="#5A6C6E" stroke-width="0.5" stroke-miterlimit="10"/>
<path d="M118.714 66.3547L132.136 65.2598L132.223 68.5208L118.439 68.492L118.714 66.3547Z" fill="#5A6C6E"/>
<path d="M75.3999 59.3952C75.4576 61.5187 77.4558 63.0496 79.5217 62.5523L86.1841 60.9449L86.045 55.7671L78.6484 55.9663C76.8056 56.0164 75.3511 57.5511 75.3999 59.3952Z" fill="#5A6C6E"/>
<path d="M84.8373 43.8681L84.5003 64.1935L92.7851 65.3624L93.0319 41.5942L84.8373 43.8681Z" fill="#5A6C6E"/>
</svg>
