<svg width="24" height="25" viewBox="0 0 24 25" fill="none" xmlns="http://www.w3.org/2000/svg">
<path d="M9 12.25C8.66848 12.25 8.35054 12.3817 8.11612 12.6161C7.8817 12.8505 7.75 13.1685 7.75 13.5C7.75 13.8315 7.8817 14.1495 8.11612 14.3839C8.35054 14.6183 8.66848 14.75 9 14.75C9.33152 14.75 9.64946 14.6183 9.88388 14.3839C10.1183 14.1495 10.25 13.8315 10.25 13.5C10.25 13.1685 10.1183 12.8505 9.88388 12.6161C9.64946 12.3817 9.33152 12.25 9 12.25ZM15 12.25C14.6685 12.25 14.3505 12.3817 14.1161 12.6161C13.8817 12.8505 13.75 13.1685 13.75 13.5C13.75 13.8315 13.8817 14.1495 14.1161 14.3839C14.3505 14.6183 14.6685 14.75 15 14.75C15.3315 14.75 15.6495 14.6183 15.8839 14.3839C16.1183 14.1495 16.25 13.8315 16.25 13.5C16.25 13.1685 16.1183 12.8505 15.8839 12.6161C15.6495 12.3817 15.3315 12.25 15 12.25ZM12 2.5C6.48 2.5 2 6.98 2 12.5C2 18.02 6.48 22.5 12 22.5C17.52 22.5 22 18.02 22 12.5C22 6.98 17.52 2.5 12 2.5ZM12 20.5C7.59 20.5 4 16.91 4 12.5C4 12.21 4.02 11.92 4.05 11.64C6.41 10.59 8.28 8.66 9.26 6.27C10.4029 7.89279 12.0041 9.13752 13.8587 9.84478C15.7133 10.552 17.7367 10.6897 19.67 10.24C19.88 10.95 20 11.71 20 12.5C20 16.91 16.41 20.5 12 20.5Z" fill="white"/>
</svg>
