<svg width="24" height="24" viewBox="0 0 24 24" fill="none" xmlns="http://www.w3.org/2000/svg">
<path d="M6 18.6926H9.692V13.6156C9.692 13.387 9.76967 13.1953 9.925 13.0406C10.0797 12.8853 10.2713 12.8076 10.5 12.8076H13.5C13.7287 12.8076 13.9207 12.8853 14.076 13.0406C14.2307 13.1953 14.308 13.387 14.308 13.6156V18.6926H18V10.0006C18 9.89795 17.9777 9.80462 17.933 9.72062C17.8883 9.63662 17.8273 9.56328 17.75 9.50062L12.366 5.44262C12.2633 5.35328 12.1413 5.30862 12 5.30862C11.8587 5.30862 11.737 5.35328 11.635 5.44262L6.25 9.50062C6.17333 9.56462 6.11233 9.63795 6.067 9.72062C6.02167 9.80328 5.99933 9.89662 6 10.0006V18.6926ZM5 18.6926V10.0006C5 9.74462 5.05733 9.50228 5.172 9.27362C5.28667 9.04495 5.44467 8.85662 5.646 8.70862L11.031 4.63062C11.313 4.41528 11.635 4.30762 11.997 4.30762C12.359 4.30762 12.683 4.41528 12.969 4.63062L18.354 8.70762C18.556 8.85562 18.714 9.04428 18.828 9.27362C18.9427 9.50228 19 9.74462 19 10.0006V18.6926C19 18.9606 18.9003 19.1943 18.701 19.3936C18.5017 19.593 18.268 19.6926 18 19.6926H14.116C13.8867 19.6926 13.6947 19.6153 13.54 19.4606C13.3853 19.3053 13.308 19.1133 13.308 18.8846V13.8086H10.692V18.8846C10.692 19.1139 10.6147 19.306 10.46 19.4606C10.3053 19.6153 10.1137 19.6926 9.885 19.6926H6C5.732 19.6926 5.49833 19.593 5.299 19.3936C5.09967 19.1943 5 18.9606 5 18.6926Z" fill="white"/>
</svg>
