<svg width="30" height="31" viewBox="0 0 30 31" fill="none" xmlns="http://www.w3.org/2000/svg">
<path d="M23.75 21.75H26.25C27 21.75 27.5 21.25 27.5 20.5V16.75C27.5 15.625 26.625 14.625 25.625 14.375C23.375 13.75 20 13 20 13C20 13 18.375 11.25 17.25 10.125C16.625 9.625 15.875 9.25 15 9.25H6.25C5.5 9.25 4.875 9.75 4.5 10.375L2.75 14C2.58447 14.4828 2.5 14.9896 2.5 15.5V20.5C2.5 21.25 3 21.75 3.75 21.75H6.25" stroke="white" stroke-width="2" stroke-linecap="round" stroke-linejoin="round"/>
<path d="M8.75 24.25C10.1307 24.25 11.25 23.1307 11.25 21.75C11.25 20.3693 10.1307 19.25 8.75 19.25C7.36929 19.25 6.25 20.3693 6.25 21.75C6.25 23.1307 7.36929 24.25 8.75 24.25Z" stroke="white" stroke-width="2" stroke-linecap="round" stroke-linejoin="round"/>
<path d="M11.25 21.75H18.75" stroke="white" stroke-width="2" stroke-linecap="round" stroke-linejoin="round"/>
<path d="M21.25 24.25C22.6307 24.25 23.75 23.1307 23.75 21.75C23.75 20.3693 22.6307 19.25 21.25 19.25C19.8693 19.25 18.75 20.3693 18.75 21.75C18.75 23.1307 19.8693 24.25 21.25 24.25Z" stroke="white" stroke-width="2" stroke-linecap="round" stroke-linejoin="round"/>
</svg>
