<svg width="207" height="263" viewBox="0 0 207 263" fill="none" xmlns="http://www.w3.org/2000/svg">
<path d="M169.139 90.0629H154.479V20.3254H200.912C204.059 20.3254 206.61 22.9501 206.61 26.1876C206.61 56.7756 174.792 43.4922 174.792 84.2477C174.792 87.4596 172.261 90.0629 169.139 90.0629Z" fill="#151719"/>
<path d="M169.139 165.967H154.479V96.23H200.912C204.059 96.23 206.61 98.8546 206.61 102.092C206.61 132.68 174.792 119.397 174.792 160.152C174.792 163.364 172.261 165.967 169.139 165.967Z" fill="#151719"/>
<path d="M169.139 241.872H154.479V172.135H200.912C204.059 172.135 206.61 174.759 206.61 177.997C206.61 208.585 174.792 195.301 174.792 236.057C174.792 239.269 172.261 241.872 169.139 241.872Z" fill="#151719"/>
<path d="M37.4708 90.0629H52.1306V20.3254H5.69821C2.5512 20.3254 0 22.9501 0 26.1876C0 56.7756 31.8183 43.4922 31.8183 84.2477C31.8183 87.4596 34.3491 90.0629 37.4708 90.0629Z" fill="#151719"/>
<path d="M37.4708 165.967H52.1306V96.23H5.69821C2.5512 96.23 0 98.8546 0 102.092C0 132.68 31.8183 119.397 31.8183 160.152C31.8183 163.364 34.3491 165.967 37.4708 165.967Z" fill="#151719"/>
<path d="M37.4708 241.872H52.1306V172.135H5.69821C2.5512 172.135 0 174.759 0 177.997C0 208.585 31.8183 195.301 31.8183 236.057C31.8183 239.269 34.3491 241.872 37.4708 241.872Z" fill="#151719"/>
<path d="M137.671 262.198H68.9394C57.029 262.198 47.374 252.265 47.374 240.012V22.186C47.374 9.93281 57.0293 0 68.9394 0H137.671C149.581 0 159.236 9.93312 159.236 22.186V240.012C159.236 252.265 149.581 262.198 137.671 262.198Z" fill="#2C3035"/>
<path d="M103.305 90.0632C122.024 90.0632 137.199 74.4519 137.199 55.1943C137.199 35.9368 122.024 20.3254 103.305 20.3254C84.5863 20.3254 69.4116 35.9368 69.4116 55.1943C69.4116 74.4519 84.5863 90.0632 103.305 90.0632Z" fill="#151719"/>
<path d="M103.305 84.8074C119.203 84.8074 132.09 71.5491 132.09 55.1941C132.09 38.8391 119.203 25.5808 103.305 25.5808C87.408 25.5808 74.5205 38.8391 74.5205 55.1941C74.5205 71.5491 87.408 84.8074 103.305 84.8074Z" fill="#E81818"/>
<path d="M103.305 165.967C122.024 165.967 137.199 150.356 137.199 131.099C137.199 111.841 122.024 96.2297 103.305 96.2297C84.5863 96.2297 69.4116 111.841 69.4116 131.099C69.4116 150.356 84.5863 165.967 103.305 165.967Z" fill="#151719"/>
<path d="M103.305 160.712C119.203 160.712 132.09 147.454 132.09 131.099C132.09 114.744 119.203 101.485 103.305 101.485C87.408 101.485 74.5205 114.744 74.5205 131.099C74.5205 147.454 87.408 160.712 103.305 160.712Z" fill="#333E44"/>
<path d="M103.305 241.873C122.024 241.873 137.199 226.261 137.199 207.004C137.199 187.746 122.024 172.135 103.305 172.135C84.5863 172.135 69.4116 187.746 69.4116 207.004C69.4116 226.261 84.5863 241.873 103.305 241.873Z" fill="#151719"/>
<path d="M103.305 236.617C119.203 236.617 132.09 223.358 132.09 207.003C132.09 190.648 119.203 177.39 103.305 177.39C87.408 177.39 74.5205 190.648 74.5205 207.003C74.5205 223.358 87.408 236.617 103.305 236.617Z" fill="#333E44"/>
</svg>
