<svg width="25" height="25" viewBox="0 0 25 25" fill="none" xmlns="http://www.w3.org/2000/svg">
<path d="M8.74276 3.53004C9.00002 3.59449 9.22114 3.7585 9.35747 3.98598C9.49381 4.21346 9.5342 4.48578 9.46976 4.74304L5.46976 20.743C5.43977 20.8724 5.38433 20.9944 5.30667 21.1021C5.22901 21.2098 5.13069 21.3009 5.01743 21.3702C4.90418 21.4395 4.77826 21.4855 4.64703 21.5056C4.51579 21.5257 4.38187 21.5195 4.25307 21.4873C4.12427 21.4551 4.00317 21.3976 3.89684 21.3181C3.7905 21.2386 3.70106 21.1387 3.63373 21.0243C3.56641 20.9099 3.52254 20.7832 3.50469 20.6516C3.48684 20.5201 3.49536 20.3863 3.52976 20.258L7.52976 4.25804C7.56157 4.13057 7.61818 4.01061 7.69636 3.90503C7.77455 3.79945 7.87277 3.7103 7.98542 3.6427C8.09806 3.57509 8.22293 3.53034 8.35288 3.51101C8.48283 3.49168 8.61531 3.49815 8.74276 3.53004ZM17.4698 4.25704L21.4698 20.257C21.5042 20.3853 21.5127 20.5191 21.4948 20.6506C21.477 20.7822 21.4331 20.9089 21.3658 21.0233C21.2985 21.1377 21.209 21.2376 21.1027 21.3171C20.9964 21.3966 20.8753 21.4541 20.7465 21.4863C20.6177 21.5185 20.4837 21.5247 20.3525 21.5046C20.2213 21.4845 20.0953 21.4385 19.9821 21.3692C19.8688 21.2999 19.7705 21.2088 19.6929 21.1011C19.6152 20.9934 19.5597 20.8714 19.5298 20.742L15.5298 4.74204C15.4954 4.61381 15.4868 4.48001 15.5047 4.34845C15.5225 4.21689 15.5664 4.09021 15.6337 3.97578C15.7011 3.86136 15.7905 3.76148 15.8968 3.68199C16.0032 3.60249 16.1243 3.54497 16.2531 3.51277C16.3819 3.48057 16.5158 3.47434 16.647 3.49444C16.7783 3.51454 16.9042 3.56058 17.0174 3.62986C17.1307 3.69914 17.229 3.79028 17.3067 3.89796C17.3843 4.00564 17.4398 4.1277 17.4698 4.25704ZM12.4998 17.5C12.7447 17.5001 12.9811 17.59 13.1641 17.7528C13.3472 17.9155 13.4641 18.1398 13.4928 18.383L13.4998 18.5V20.5C13.4995 20.7549 13.4019 21.0001 13.2269 21.1854C13.0519 21.3707 12.8128 21.4823 12.5584 21.4972C12.3039 21.5121 12.0534 21.4294 11.8579 21.2658C11.6625 21.1022 11.5369 20.8701 11.5068 20.617L11.4998 20.5V18.5C11.4998 18.2348 11.6051 17.9805 11.7927 17.7929C11.9802 17.6054 12.2345 17.5 12.4998 17.5ZM12.4998 10.5C12.765 10.5 13.0193 10.6054 13.2069 10.7929C13.3944 10.9805 13.4998 11.2348 13.4998 11.5V13.5C13.4998 13.7653 13.3944 14.0196 13.2069 14.2071C13.0193 14.3947 12.765 14.5 12.4998 14.5C12.2345 14.5 11.9802 14.3947 11.7927 14.2071C11.6051 14.0196 11.4998 13.7653 11.4998 13.5V11.5C11.4998 11.2348 11.6051 10.9805 11.7927 10.7929C11.9802 10.6054 12.2345 10.5 12.4998 10.5ZM12.4998 3.50004C12.7447 3.50007 12.9811 3.58999 13.1641 3.75275C13.3472 3.91551 13.4641 4.13979 13.4928 4.38304L13.4998 4.50004V6.50004C13.4995 6.75492 13.4019 7.00007 13.2269 7.18541C13.0519 7.37074 12.8128 7.48227 12.5584 7.49721C12.3039 7.51215 12.0534 7.42936 11.8579 7.26577C11.6625 7.10218 11.5369 6.87013 11.5068 6.61704L11.4998 6.50004V4.50004C11.4998 4.23482 11.6051 3.98047 11.7927 3.79293C11.9802 3.60539 12.2345 3.50004 12.4998 3.50004Z" fill="white"/>
</svg>
