<svg width="139" height="137" viewBox="0 0 139 137" fill="none" xmlns="http://www.w3.org/2000/svg">
<path opacity="0.2" d="M69.5078 136.869C107.74 136.869 138.733 134.974 138.733 132.636C138.733 130.298 107.74 128.402 69.5078 128.402C31.2756 128.402 0.282227 130.298 0.282227 132.636C0.282227 134.974 31.2756 136.869 69.5078 136.869Z" fill="black"/>
<path d="M117.205 85.6983C117.535 85.6983 124.244 85.9335 124.244 85.9335L125.344 74.0562L130.294 74.5265L128.644 89.8142L117.755 91.5782" fill="#514629"/>
<path d="M121.605 95.8119H110.385L109.945 83.229H117.645L121.605 95.8119Z" fill="#75653A"/>
<path d="M115.665 92.0488H123.364L128.196 100.557L127.874 106.984H118.524L115.665 92.0488Z" fill="#98861C"/>
<path d="M118.525 106.984H127.874L128.196 100.557H117.294L118.525 106.984Z" fill="#867418"/>
<path d="M46.5132 37.7092C46.5062 39.8683 47.4557 41.6191 48.6331 41.6191C49.8105 41.6191 52.5305 39.8683 52.5376 37.7092C52.5446 35.5501 49.8352 33.7993 48.6577 33.7993C47.4803 33.7993 46.5203 35.5492 46.5132 37.7092Z" fill="#FFF4D4"/>
<path d="M47.7694 32.9771C47.7694 32.9771 57.4607 34.852 57.4572 38.0253C57.4536 41.1985 47.7598 42.4394 47.7598 42.4394" fill="#C5AF28"/>
<path d="M55.0112 40.1433L56.8653 45.0994H51.6382L53.37 40.1622C53.6525 39.3587 54.7128 39.3456 55.0112 40.1433Z" fill="#8C7A18"/>
<path d="M94.545 75.0366H45.5591V81.3088H94.545V75.0366Z" fill="#514629"/>
<path d="M82.9241 31.7608L76.2987 19.272L65.9756 11.6074L64.7568 21.9174L67.4628 22.5054L70.5066 31.8126L74.691 37.8044" fill="#D89560"/>
<path d="M80.3331 26.8772L78.1639 25.6871L72.7934 26.0813L70.098 18.9615L65.4341 16.189L65.9753 11.6074L76.2983 19.272L80.3331 26.8772Z" fill="#C17A42"/>
<path d="M80.3807 26.9032L82.0694 16.1021L78.1755 13.6146L75.8902 8.26725L61.6529 5.63965L59.0869 11.4668L65.9754 11.607L74.0413 20.1785L74.051 24.7253L76.7772 25.174L78.0452 22.8258L80.3807 26.9032Z" fill="#F7941D"/>
<path d="M87.1215 69.4165L90.6088 45.8152L82.9301 31.8276L73.3832 36.127L69.3335 55.2681L87.1215 69.4165Z" fill="#4A4A34"/>
<path d="M62.4296 45.7588L94.8032 45.7588V40.7115L62.4296 40.7115V45.7588Z" fill="#847219"/>
<path d="M99.7345 24.5835C97.744 32.4917 98.0986 39.4694 100.527 40.1675C102.954 40.8655 106.536 35.0205 108.526 27.1123C110.517 19.2041 110.162 12.2263 107.734 11.5282C105.307 10.8302 101.725 16.6752 99.7345 24.5835Z" fill="#8C7A18"/>
<path d="M104.077 7.60514L94.7466 40.748L99.2675 42.2027L108.598 9.05977L104.077 7.60514Z" fill="#C5AF28"/>
<path d="M28.6295 63.694L87.7344 63.397L87.7118 58.2697L28.6069 58.5667L28.6295 63.694Z" fill="#98861E"/>
<path d="M28.629 63.6944L87.7339 63.3975L87.7249 61.3578L28.62 61.6548L28.629 63.6944Z" fill="#A4901E"/>
<path d="M6.19004 59.2252L65.2949 58.9282L65.2724 53.801L6.1675 54.098L6.19004 59.2252Z" fill="#AD9923"/>
<path d="M6.17246 55.172L65.2773 54.875L65.2726 53.8006L6.16774 54.0976L6.17246 55.172Z" fill="#DECF4E"/>
<path opacity="0.1" d="M6.19142 59.2234L9.45703 59.207L9.43449 54.0798L6.16887 54.0962L6.19142 59.2234Z" fill="#1C1C14"/>
<path d="M6.19004 59.2252L65.2949 58.9282L65.286 56.8886L6.18107 57.1856L6.19004 59.2252Z" fill="#A4901E"/>
<path d="M48.058 50.7967C48.058 50.7967 34.3391 46.6564 37.9171 62.1501C40.5131 73.3896 48.058 50.7967 48.058 50.7967Z" fill="#C5AF28"/>
<path d="M51.0591 44.0396L33.6064 66.099L38.4463 76.2905H97.9921L102.594 71.3711V49.0078L97.9463 44.0396H51.0591Z" fill="#AD9923"/>
<path d="M38.4463 76.2906H97.9921L102.594 71.3713L33.6064 66.0991L38.4463 76.2906Z" fill="#8C7A18"/>
<path d="M84.502 69.7153L81.5171 44.0396H81.0736L84.0549 69.6805L45.2865 66.6634L58.495 44.0396H57.9767L44.791 66.6249L33.8634 65.7744L33.6064 66.099L33.6698 66.2316L44.7347 67.0924L47.7275 76.2905H48.193L45.2125 67.1301L84.1104 70.1566L84.1271 70.3005L81.8647 76.2905H82.339L84.5776 70.3635L84.5574 70.1914L102.398 71.58L102.594 71.3711V71.1237L84.502 69.7153Z" fill="#7D6D15"/>
<path d="M28.3267 82.563L16.007 86.3261L6.47412 99.8103L11.754 110.629L28.3267 82.563Z" fill="#C9B329"/>
<path d="M78.6737 52.8501L56.4946 52.9639L58.4843 56.6198L76.1358 62.6069L78.6737 52.8501Z" fill="#8C7A18"/>
<path d="M119.324 100.706C119.972 100.706 120.398 99.9823 120.117 99.3576L113.824 81.4179C113.502 80.8656 112.937 80.5298 112.329 80.5298H28.3148L15.4239 93.2285L13.2838 99.1497C12.7919 99.7593 13.1967 100.705 13.9499 100.705H119.324V100.706Z" fill="#A99C29"/>
<path d="M13.9501 100.706H119.324C119.971 100.706 120.397 99.9824 120.116 99.3577L117.966 93.2285H15.425L13.2849 99.1498C12.7921 99.7603 13.1969 100.706 13.9501 100.706Z" fill="#9D9123"/>
<path d="M32.6725 100.706L32.9435 93.4486L36.5391 86.8283V86.8744H59.7407L58.1797 93.3226L58.1726 93.3527L58.2685 100.706H58.7085L58.6126 93.4101L61.7304 80.5308H61.2763L59.8543 86.4041H36.7697L39.9596 80.5308H39.4519L32.5361 93.2633L32.2422 100.706H32.6725Z" fill="#7D6D15"/>
<path d="M104.988 80.5308L109.675 100.706H110.129L105.441 80.5308H104.988Z" fill="#8A7F1F"/>
<path d="M68.0751 48.1885L65.5839 53.5848L60.0127 54.4503L64.0439 58.6509L63.0926 64.5816L68.0751 61.7818L73.0567 64.5816L72.1054 58.6509L76.1366 54.4503L70.5663 53.5848L68.0751 48.1885Z" fill="#EEDE8C"/>
<path d="M110.089 83.4512H100.31V97.6918H110.089V83.4512Z" fill="#9D9123"/>
<path d="M110.089 93.7261H100.31V97.6915H110.089V93.7261Z" fill="#80761C"/>
<path d="M98.7919 83.4512H89.0127V97.6918H98.7919V83.4512Z" fill="#9D9123"/>
<path d="M98.7919 93.7261H89.0127V97.6915H98.7919V93.7261Z" fill="#80761C"/>
<path d="M87.4951 83.4512H77.7158V97.6918H87.4951V83.4512Z" fill="#9D9123"/>
<path d="M87.4951 93.7261H77.7158V97.6915H87.4951V93.7261Z" fill="#80761C"/>
<path d="M76.1977 83.4512H66.4185V97.6918H76.1977V83.4512Z" fill="#9D9123"/>
<path d="M76.1977 93.7261H66.4185V97.6915H76.1977V93.7261Z" fill="#80761C"/>
<path d="M110.089 83.4512H100.31V86.3356H110.089V83.4512Z" fill="#C1AA27"/>
<path d="M98.7919 83.4512H89.0127V86.3356H98.7919V83.4512Z" fill="#C1AA27"/>
<path d="M87.4951 83.4512H77.7158V86.3356H87.4951V83.4512Z" fill="#C1AA27"/>
<path d="M76.1977 83.4512H66.4185V86.3356H76.1977V83.4512Z" fill="#C1AA27"/>
<path d="M77.1434 18.5513C77.1434 18.5513 72.6784 31.1361 70.2426 31.1361C67.8068 31.1361 69.477 34.7619 70.5127 34.3188C71.8661 33.7402 75.9246 29.8341 79.8485 21.0105L77.1434 18.5513Z" fill="#FAF2AC"/>
<path d="M66.7246 6.11125L80.3811 26.9044C80.3811 26.9044 93.6503 18.6961 86.4793 6.25613C79.3084 -6.18381 66.7246 6.11125 66.7246 6.11125Z" fill="#8C7A18"/>
<path d="M74.5723 8.20801L81.4388 26.1449C81.4388 26.1449 82.5889 25.747 82.8591 24.9511L75.9582 6.61621" fill="#B9B16B"/>
<path d="M67.6045 4.44801C67.6045 4.44801 72.4074 9.72767 75.2489 7.99193C78.0904 6.25619 75.3844 0 75.3844 0C75.3844 0 70.5806 0.54189 67.6045 4.44801Z" fill="#B9B16B"/>
<path d="M68.167 3.77242C68.636 4.25504 72.1674 7.77167 74.2345 6.50821C76.3068 5.24191 74.3233 0.848469 74.0549 0.279297C72.5634 0.683833 70.1038 1.63308 68.167 3.77242Z" fill="#514629"/>
<path d="M109.281 129.729C112.299 129.729 115.15 128.32 117.106 125.863L121.478 120.371C124.145 117.021 124.707 112.637 122.981 108.644C121.255 104.651 117.768 102.267 113.653 102.267H19.319C14.267 102.267 11.1062 105.76 9.83282 109.029C8.55948 112.299 9.93577 117.157 13.4953 120.991L18.5966 126.483C20.5114 128.544 23.1698 129.728 25.8881 129.728L109.281 129.729Z" fill="#7A693C"/>
<path d="M15.0738 105.313C15.3377 105.313 102.905 105.313 119.732 105.313C118.026 103.968 115.944 102.267 113.654 102.267H19.3197C17.3767 102.267 15.7197 102.79 14.3354 103.612L15.0738 105.313Z" fill="#685830"/>
<path d="M109.459 115.679C107.169 110.592 108.364 104.898 112.127 102.961C115.891 101.024 120.8 103.577 123.09 108.664C125.381 113.751 124.186 119.445 120.422 121.382C116.657 123.319 111.749 120.766 109.459 115.679Z" fill="#91884E"/>
<path d="M113.27 113.719C112.259 111.476 112.787 108.966 114.446 108.112C116.106 107.258 118.27 108.384 119.279 110.627C120.289 112.869 119.762 115.379 118.102 116.234C116.443 117.087 114.28 115.961 113.27 113.719Z" fill="#C4BB72"/>
<path d="M92.823 123.264C90.5324 118.177 91.7274 112.483 95.4911 110.546C99.2548 108.609 104.163 111.162 106.454 116.249C108.744 121.336 107.549 127.03 103.786 128.967C100.022 130.905 95.1136 128.351 92.823 123.264Z" fill="#91884E"/>
<path d="M96.634 121.303C95.6246 119.061 96.1509 116.551 97.8105 115.696C99.4701 114.842 101.634 115.968 102.643 118.211C103.653 120.454 103.126 122.964 101.467 123.818C99.8072 124.671 97.6433 123.546 96.634 121.303Z" fill="#C4BB72"/>
<path d="M71.1658 123.264C68.8752 118.177 70.0702 112.483 73.8339 110.546C77.5975 108.609 82.5061 111.162 84.7967 116.249C87.0873 121.336 85.8923 127.03 82.1286 128.967C78.3649 130.905 73.4563 128.351 71.1658 123.264Z" fill="#91884E"/>
<path d="M74.9762 121.303C73.9669 119.061 74.4931 116.551 76.1528 115.696C77.8124 114.842 79.9763 115.968 80.9856 118.211C81.995 120.454 81.4688 122.964 79.8091 123.818C78.1503 124.671 75.9865 123.546 74.9762 121.303Z" fill="#C4BB72"/>
<path d="M49.5085 123.264C47.2179 118.177 48.4129 112.483 52.1766 110.546C55.9403 108.609 60.8489 111.162 63.1394 116.249C65.43 121.336 64.235 127.03 60.4713 128.967C56.7068 130.905 51.7991 128.351 49.5085 123.264Z" fill="#91884E"/>
<path d="M53.319 121.303C52.3097 119.061 52.8359 116.551 54.4956 115.696C56.1552 114.842 58.3191 115.968 59.3284 118.211C60.3378 120.454 59.8115 122.964 58.1519 123.818C56.4931 124.671 54.3292 123.546 53.319 121.303Z" fill="#C4BB72"/>
<path d="M27.8515 123.264C25.5609 118.177 26.755 112.483 30.5196 110.546C34.2833 108.609 39.1918 111.162 41.4824 116.249C43.773 121.336 42.578 127.03 38.8143 128.967C35.0498 130.905 30.1421 128.351 27.8515 123.264Z" fill="#91884E"/>
<path d="M31.6618 121.303C30.6525 119.061 31.1787 116.551 32.8383 115.696C34.498 114.842 36.6619 115.968 37.6712 118.211C38.6805 120.454 38.1543 122.964 36.4947 123.818C34.8359 124.671 32.672 123.546 31.6618 121.303Z" fill="#C4BB72"/>
<path d="M9.99213 115.679C7.70154 110.592 8.89567 104.898 12.6602 102.961C16.4239 101.024 21.3325 103.577 23.623 108.664C25.9136 113.751 24.7186 119.445 20.9549 121.382C17.1913 123.319 12.2827 120.766 9.99213 115.679Z" fill="#91884E"/>
<path d="M13.8034 113.719C12.7941 111.476 13.3203 108.966 14.9799 108.112C16.6396 107.258 18.8035 108.384 19.8128 110.627C20.8221 112.869 20.2959 115.379 18.6363 116.234C16.9766 117.087 14.8127 115.961 13.8034 113.719Z" fill="#C4BB72"/>
<path d="M126.071 107.118C123.774 101.801 119.133 98.627 113.654 98.627H19.3189C12.5932 98.627 8.38517 103.277 6.68944 107.631C4.85292 112.35 6.61729 118.75 11.0788 123.556L16.1809 129.049C18.7311 131.794 22.2686 133.369 25.888 133.369H109.281C113.298 133.369 117.095 131.493 119.699 128.222L124.071 122.73C127.622 118.27 128.37 112.434 126.071 107.118ZM121.478 120.371L117.106 125.864C115.15 128.32 112.299 129.729 109.281 129.729H25.888C23.1698 129.729 20.5122 128.546 18.5965 126.484L13.4952 120.992C9.9357 117.159 8.55941 112.3 9.83274 109.03C11.1061 105.761 14.2661 102.268 19.3189 102.268H113.653C117.768 102.268 121.254 104.652 122.981 108.645C124.706 112.637 124.145 117.021 121.478 120.371Z" fill="#514629"/>
<path d="M122.924 73.1158L133.044 73.4686L128.775 68.7646L122.924 73.1158Z" fill="#514629"/>
</svg>
