<svg width="24" height="25" viewBox="0 0 24 25" fill="none" xmlns="http://www.w3.org/2000/svg">
<path fill-rule="evenodd" clip-rule="evenodd" d="M12 3.25C9.54675 3.25 7.19397 4.22455 5.45926 5.95926C3.72455 7.69397 2.75 10.0467 2.75 12.5C2.75 14.9533 3.72455 17.306 5.45926 19.0407C7.19397 20.7754 9.54675 21.75 12 21.75C14.4533 21.75 16.806 20.7754 18.5407 19.0407C20.2754 17.306 21.25 14.9533 21.25 12.5C21.25 10.0467 20.2754 7.69397 18.5407 5.95926C16.806 4.22455 14.4533 3.25 12 3.25ZM1.25 12.5C1.25 6.563 6.063 1.75 12 1.75C17.937 1.75 22.75 6.563 22.75 12.5C22.75 18.437 17.937 23.25 12 23.25C6.063 23.25 1.25 18.437 1.25 12.5ZM6.803 11.75H9.353C9.47745 11.3112 9.70946 10.9104 10.028 10.584L8.752 8.374C7.69314 9.2075 6.99532 10.4162 6.803 11.75ZM10.051 7.624L11.326 9.834C11.7684 9.72258 12.2316 9.72258 12.674 9.834L13.949 7.624C13.3294 7.37537 12.6677 7.24839 12 7.25C11.311 7.25 10.654 7.383 10.051 7.624ZM15.247 8.374L13.971 10.584C14.285 10.906 14.52 11.305 14.646 11.75H17.196C17.0032 10.4164 16.305 9.20808 15.246 8.375M17.195 13.251H14.645C14.5206 13.6898 14.2885 14.0906 13.97 14.417L15.246 16.627C16.3049 15.7935 17.0027 14.5848 17.195 13.251ZM13.947 17.377L12.672 15.167C12.2296 15.2788 11.7664 15.2788 11.324 15.167L10.049 17.377C10.651 17.618 11.309 17.751 11.998 17.751C12.687 17.751 13.345 17.618 13.948 17.377M8.751 16.627L10.027 14.417C9.70916 14.0902 9.47755 13.6895 9.353 13.251H6.803C6.99531 14.5842 7.69273 15.7926 8.751 16.626M11.385 13.589L11.374 13.583L11.364 13.577C11.177 13.4668 11.0219 13.3098 10.914 13.1215C10.806 12.9332 10.749 12.72 10.7485 12.5029C10.748 12.2859 10.804 12.0724 10.9111 11.8836C11.0181 11.6948 11.1725 11.5371 11.359 11.426L11.374 11.418L11.389 11.408C11.5747 11.3034 11.7843 11.2484 11.9975 11.2484C12.2107 11.2484 12.4203 11.3034 12.606 11.408L12.624 11.418L12.641 11.428C12.827 11.5395 12.9808 11.6976 13.0873 11.8865C13.1937 12.0755 13.2492 12.289 13.2481 12.5058C13.2471 12.7227 13.1897 12.9356 13.0815 13.1236C12.9733 13.3116 12.818 13.4682 12.631 13.578L12.624 13.583L12.616 13.588C12.4287 13.6953 12.2165 13.7519 12.0006 13.752C11.7847 13.7522 11.5725 13.696 11.385 13.589ZM5.25 12.5C5.25 10.7098 5.96116 8.9929 7.22703 7.72703C8.4929 6.46116 10.2098 5.75 12 5.75C13.7902 5.75 15.5071 6.46116 16.773 7.72703C18.0388 8.9929 18.75 10.7098 18.75 12.5C18.75 14.2902 18.0388 16.0071 16.773 17.273C15.5071 18.5388 13.7902 19.25 12 19.25C10.2098 19.25 8.4929 18.5388 7.22703 17.273C5.96116 16.0071 5.25 14.2902 5.25 12.5Z" fill="white"/>
</svg>
